<?xml version="1.0" encoding="UTF-8"?> <svg xmlns="http://www.w3.org/2000/svg" id="Ebene_2" data-name="Ebene 2" viewBox="0 0 978 401.06"><g id="Ebene_1-2" data-name="Ebene 1"><g><path d="M876.56,0c-30.27,0-57.25,19.07-67.35,47.6l-91.68,272.16-58.63,44.28,88.28-267.61L780.38,0h-101.44c-30.27,0-57.25,19.07-67.35,47.6l-91.43,272.29-58.63,44.28,88.32-267.74L583.06,0h-101.44c-30.27,0-57.25,19.07-67.35,47.6l-119.07,353.46h154.16l.02-.04,58.34-44.07-14.81,44.11h153.77l.06-.17,58.29-44.02-14.89,44.19h154.16l100.49-304.63L978,0h-101.44Z"></path><path d="M351.86,97.02L385.07.58h-97.6C194.83,1.81,113.16,61.67,84.12,149.65l-50.91,154.4L0,400.48h97.6c92.64-1.22,174.31-61.08,203.35-149.07l50.92-154.4Z"></path></g></g></svg> 