<?xml version="1.0" encoding="utf-8"?>
<!-- Generator: Adobe Illustrator 28.0.0, SVG Export Plug-In . SVG Version: 6.00 Build 0)  -->
<svg version="1.1" id="Layer_1" xmlns="http://www.w3.org/2000/svg" xmlns:xlink="http://www.w3.org/1999/xlink" x="0px" y="0px"
	 width="165px" height="235px" viewBox="0 0 165 235" style="enable-background:new 0 0 165 235;" xml:space="preserve">
<style type="text/css">
	.st0{fill:#264651;}
	.st1{fill:#A2FEFF;}
</style>
<path class="st0" d="M151.52,137.99c-8.49-8.86-20.38-13.57-35.69-14.13h47.14V82.77h-47.49V59.98c0-11.53-2.27-21.63-6.82-30.31
	c-4.55-8.68-10.99-15.43-19.34-20.24C80.97,4.62,71.07,2.21,59.6,2.21c-11.39,0-21.34,2.36-29.87,7.07
	C21.21,13.99,14.6,20.57,9.91,29.01C5.22,37.46,2.87,47.3,2.87,58.56v65.24v0.06v40.43h110.67c6.02,0,10.5,1.22,13.43,3.66
	c2.94,2.44,4.4,5.97,4.4,10.58c0,4.61-1.47,8.17-4.4,10.68c-2.94,2.51-7.34,3.76-13.21,3.76H102.9v41.09h9.99
	c16.76,0,29.65-4.81,38.68-14.44c9.03-9.63,13.54-23.33,13.54-41.1C165.11,160.97,160.58,147.45,151.52,137.99z M37.69,68.33
	c0-4.88,0.86-9.05,2.58-12.51c1.72-3.46,4.21-6.1,7.47-7.93c3.26-1.83,7.21-2.75,11.87-2.75c4.51,0,8.42,0.92,11.71,2.75
	c3.3,1.83,5.86,4.48,7.68,7.93c1.83,3.46,2.74,7.63,2.74,12.51v14.44H37.69V68.33z"/>
<g>
	<path class="st1" d="M26.81,119.9c0,0.75-0.19,1.32-0.56,1.7c-0.37,0.39-0.87,0.58-1.49,0.58c-0.63,0-1.13-0.19-1.5-0.58
		c-0.37-0.39-0.56-0.95-0.56-1.7v-0.83h-2.56v0.81c0,1.41,0.42,2.5,1.25,3.27c0.83,0.76,1.96,1.15,3.37,1.15
		c1.4,0,2.51-0.38,3.34-1.15c0.83-0.77,1.24-1.86,1.24-3.27v-10.06h-2.54V119.9z"/>
	<path class="st1" d="M38.69,114.02c-0.43-0.28-0.9-0.48-1.41-0.6c-0.51-0.12-1.02-0.18-1.53-0.18c-0.72,0-1.38,0.1-1.99,0.31
		c-0.61,0.2-1.14,0.51-1.58,0.93c-0.44,0.41-0.77,0.94-0.98,1.57l2.31,0.47c0.09-0.24,0.23-0.46,0.42-0.66
		c0.19-0.2,0.44-0.37,0.74-0.5s0.66-0.19,1.08-0.19c0.41,0,0.75,0.07,1.03,0.2c0.28,0.13,0.49,0.32,0.63,0.57s0.21,0.54,0.21,0.9
		v0.05c0,0.24-0.09,0.42-0.27,0.54c-0.18,0.11-0.47,0.2-0.86,0.25c-0.39,0.05-0.9,0.11-1.52,0.18c-0.52,0.05-1.03,0.14-1.52,0.26
		c-0.49,0.12-0.92,0.3-1.31,0.54c-0.39,0.24-0.69,0.55-0.92,0.95s-0.34,0.9-0.34,1.51c0,0.7,0.16,1.29,0.47,1.77
		c0.31,0.48,0.74,0.84,1.29,1.09c0.54,0.25,1.15,0.37,1.83,0.37c0.56,0,1.05-0.08,1.46-0.24c0.41-0.16,0.76-0.36,1.04-0.62
		c0.28-0.26,0.5-0.54,0.66-0.84h0.1v1.48h2.39v-7.16c0-0.72-0.13-1.31-0.39-1.78C39.47,114.68,39.12,114.3,38.69,114.02z
		 M37.65,120.26c0,0.4-0.1,0.76-0.31,1.1c-0.21,0.34-0.5,0.61-0.87,0.81c-0.37,0.2-0.82,0.31-1.34,0.31c-0.35,0-0.66-0.05-0.94-0.16
		c-0.27-0.11-0.49-0.27-0.64-0.47s-0.23-0.46-0.23-0.77c0-0.33,0.08-0.6,0.25-0.81c0.17-0.21,0.4-0.37,0.71-0.48
		c0.3-0.12,0.64-0.2,1.01-0.25c0.16-0.02,0.36-0.04,0.59-0.08c0.23-0.03,0.47-0.07,0.71-0.12s0.46-0.1,0.65-0.15
		c0.19-0.06,0.33-0.12,0.42-0.18V120.26z"/>
	<path class="st1" d="M49.8,113.72c-0.55-0.31-1.19-0.47-1.93-0.47c-0.88,0-1.6,0.23-2.19,0.7c-0.47,0.37-0.84,0.91-1.13,1.58
		l-0.03-2.14h-2.36v10.72h2.49v-6.28c0-0.52,0.1-0.96,0.3-1.33c0.2-0.37,0.47-0.65,0.81-0.84s0.74-0.29,1.18-0.29
		c0.65,0,1.16,0.2,1.53,0.61c0.37,0.41,0.56,0.97,0.56,1.69v6.44h2.49v-6.82c0-0.86-0.15-1.6-0.46-2.2S50.35,114.03,49.8,113.72z"/>
	<path class="st1" d="M66.13,110.43c-0.75-0.41-1.67-0.61-2.76-0.61h-5.34v14.29h2.56v-4.83h2.74c1.1,0,2.03-0.21,2.78-0.61
		s1.33-0.97,1.71-1.68c0.39-0.71,0.58-1.52,0.58-2.44c0-0.91-0.19-1.72-0.58-2.43S66.88,110.83,66.13,110.43z M65.49,115.89
		c-0.2,0.4-0.5,0.71-0.91,0.93c-0.41,0.22-0.94,0.34-1.59,0.34h-2.41v-5.2h2.39c0.65,0,1.19,0.11,1.6,0.33
		c0.42,0.22,0.72,0.52,0.92,0.91c0.19,0.39,0.29,0.84,0.29,1.34C65.78,115.05,65.69,115.5,65.49,115.89z"/>
	<path class="st1" d="M77.84,114.54c-0.46-0.44-0.98-0.77-1.57-0.98c-0.59-0.21-1.21-0.32-1.87-0.32c-1.02,0-1.91,0.23-2.67,0.7
		c-0.76,0.47-1.34,1.12-1.76,1.95c-0.41,0.83-0.62,1.8-0.62,2.91c0,1.12,0.21,2.09,0.63,2.92c0.42,0.83,1.02,1.46,1.79,1.92
		c0.78,0.45,1.71,0.68,2.79,0.68c0.8,0,1.51-0.12,2.13-0.36c0.62-0.24,1.14-0.58,1.56-1.01c0.42-0.43,0.71-0.93,0.88-1.51
		l-2.29-0.47c-0.11,0.3-0.27,0.55-0.49,0.76s-0.47,0.36-0.77,0.47s-0.63,0.16-0.99,0.16c-0.55,0-1.03-0.12-1.45-0.35
		s-0.74-0.59-0.97-1.06c-0.21-0.42-0.3-0.93-0.33-1.51h7.45v-0.79c0-0.94-0.13-1.75-0.39-2.43
		C78.66,115.54,78.3,114.98,77.84,114.54z M73.01,115.59c0.38-0.26,0.85-0.39,1.4-0.39c0.55,0,1.01,0.13,1.38,0.38
		c0.37,0.26,0.64,0.61,0.83,1.07c0.13,0.32,0.2,0.69,0.24,1.09h-4.99c0.03-0.4,0.11-0.78,0.27-1.12
		C72.34,116.19,72.63,115.85,73.01,115.59z"/>
	<rect x="80.83" y="113.38" class="st1" width="2.49" height="10.72"/>
	<path class="st1" d="M82.08,109.13c-0.4,0-0.74,0.13-1.02,0.4c-0.28,0.27-0.43,0.59-0.43,0.97c0,0.37,0.14,0.69,0.43,0.96
		s0.62,0.4,1.02,0.4c0.4,0,0.75-0.13,1.03-0.4c0.28-0.27,0.43-0.59,0.43-0.97c0-0.38-0.14-0.7-0.43-0.96
		C82.83,109.26,82.48,109.13,82.08,109.13z"/>
	<path class="st1" d="M90.54,113.24c-0.61,0-1.16,0.17-1.64,0.5c-0.48,0.34-0.81,0.81-1.01,1.43h-0.12v-1.79h-2.42v10.72h2.49v-6.31
		c0-0.45,0.1-0.85,0.31-1.2c0.21-0.35,0.5-0.62,0.86-0.82c0.37-0.2,0.78-0.3,1.24-0.3c0.22,0,0.45,0.01,0.68,0.04
		c0.23,0.03,0.4,0.05,0.5,0.09v-2.29c-0.12-0.02-0.27-0.04-0.44-0.05C90.84,113.24,90.68,113.24,90.54,113.24z"/>
	<path class="st1" d="M101.28,115.88c-0.42-0.83-1.01-1.48-1.78-1.94s-1.68-0.69-2.72-0.69c-1.04,0-1.95,0.23-2.71,0.69
		c-0.77,0.46-1.36,1.11-1.78,1.94c-0.42,0.83-0.63,1.81-0.63,2.92c0,1.1,0.21,2.06,0.63,2.89s1.01,1.47,1.78,1.94
		c0.77,0.46,1.67,0.7,2.71,0.7c1.05,0,1.96-0.23,2.72-0.7c0.77-0.46,1.36-1.11,1.78-1.94c0.42-0.83,0.63-1.79,0.63-2.89
		C101.9,117.69,101.69,116.71,101.28,115.88z M99.09,120.56c-0.19,0.53-0.48,0.95-0.86,1.27c-0.39,0.31-0.87,0.47-1.45,0.47
		c-0.58,0-1.06-0.16-1.44-0.47c-0.38-0.31-0.67-0.74-0.85-1.27c-0.19-0.53-0.28-1.12-0.28-1.77c0-0.67,0.09-1.26,0.28-1.79
		c0.19-0.53,0.47-0.95,0.85-1.26c0.38-0.31,0.86-0.47,1.44-0.47c0.58,0,1.07,0.16,1.45,0.47c0.39,0.31,0.67,0.74,0.86,1.27
		c0.19,0.53,0.28,1.12,0.28,1.78C99.37,119.44,99.28,120.03,99.09,120.56z"/>
</g>
</svg>
