<?xml version="1.0" encoding="utf-8"?>
<!-- Generator: Adobe Illustrator 28.0.0, SVG Export Plug-In . SVG Version: 6.00 Build 0)  -->
<svg version="1.1" id="Layer_1" xmlns="http://www.w3.org/2000/svg" xmlns:xlink="http://www.w3.org/1999/xlink" x="0px" y="0px"
	 width="165px" height="235px" viewBox="0 0 165 235" style="enable-background:new 0 0 165 235;" xml:space="preserve">
<style type="text/css">
	.st0{fill:#347384;}
	.st1{fill:#A2FEFF;}
</style>
<path class="st0" d="M151.5,138c-8.5-8.9-20.4-13.6-35.7-14.1H163V82.8h-47.5V60c0-11.5-2.3-21.6-6.8-30.3s-11-15.4-19.3-20.2
	C81,4.6,71.1,2.2,59.6,2.2c-11.4,0-21.3,2.4-29.9,7.1C21.2,14,14.6,20.6,9.9,29c-4.7,8.4-7,18.3-7,29.6v65.2v0.1v40.4h110.7
	c6,0,10.5,1.2,13.4,3.7c2.9,2.4,4.4,6,4.4,10.6s-1.5,8.2-4.4,10.7c-2.9,2.5-7.3,3.8-13.2,3.8h-10.9v41.1h10
	c16.8,0,29.6-4.8,38.7-14.4c9-9.6,13.5-23.3,13.5-41.1C165.1,161,160.6,147.4,151.5,138z M37.7,68.3c0-4.9,0.9-9,2.6-12.5
	c1.7-3.5,4.2-6.1,7.5-7.9c3.3-1.8,7.2-2.8,11.9-2.8c4.5,0,8.4,0.9,11.7,2.8c3.3,1.8,5.9,4.5,7.7,7.9c1.8,3.5,2.7,7.6,2.7,12.5v14.4
	h-44V68.3z"/>
<g>
	<path class="st1" d="M26.8,119.9c0,0.8-0.2,1.3-0.6,1.7c-0.4,0.4-0.9,0.6-1.5,0.6c-0.6,0-1.1-0.2-1.5-0.6s-0.6-0.9-0.6-1.7v-0.8
		h-2.6v0.8c0,1.4,0.4,2.5,1.2,3.3c0.8,0.8,2,1.2,3.4,1.2c1.4,0,2.5-0.4,3.3-1.2c0.8-0.8,1.2-1.9,1.2-3.3v-10.1h-2.5L26.8,119.9
		L26.8,119.9z"/>
	<path class="st1" d="M38.7,114c-0.4-0.3-0.9-0.5-1.4-0.6c-0.5-0.1-1-0.2-1.5-0.2c-0.7,0-1.4,0.1-2,0.3c-0.6,0.2-1.1,0.5-1.6,0.9
		c-0.4,0.4-0.8,0.9-1,1.6l2.3,0.5c0.1-0.2,0.2-0.5,0.4-0.7c0.2-0.2,0.4-0.4,0.7-0.5s0.7-0.2,1.1-0.2c0.4,0,0.8,0.1,1,0.2
		s0.5,0.3,0.6,0.6s0.2,0.5,0.2,0.9v0.1c0,0.2-0.1,0.4-0.3,0.5c-0.2,0.1-0.5,0.2-0.9,0.2s-0.9,0.1-1.5,0.2c-0.5,0.1-1,0.1-1.5,0.3
		s-0.9,0.3-1.3,0.5c-0.4,0.2-0.7,0.6-0.9,0.9s-0.3,0.9-0.3,1.5c0,0.7,0.2,1.3,0.5,1.8c0.3,0.5,0.7,0.8,1.3,1.1
		c0.5,0.2,1.2,0.4,1.8,0.4c0.6,0,1-0.1,1.5-0.2c0.4-0.2,0.8-0.4,1-0.6c0.3-0.3,0.5-0.5,0.7-0.8h0.1v1.5h2.4V117
		c0-0.7-0.1-1.3-0.4-1.8C39.5,114.7,39.1,114.3,38.7,114z M37.7,120.3c0,0.4-0.1,0.8-0.3,1.1c-0.2,0.3-0.5,0.6-0.9,0.8
		s-0.8,0.3-1.3,0.3c-0.3,0-0.7-0.1-0.9-0.2c-0.3-0.1-0.5-0.3-0.6-0.5s-0.2-0.5-0.2-0.8c0-0.3,0.1-0.6,0.2-0.8s0.4-0.4,0.7-0.5
		c0.3-0.1,0.6-0.2,1-0.2c0.2,0,0.4,0,0.6-0.1c0.2,0,0.5-0.1,0.7-0.1s0.5-0.1,0.7-0.2c0.2-0.1,0.3-0.1,0.4-0.2L37.7,120.3L37.7,120.3
		z"/>
	<path class="st1" d="M49.8,113.7c-0.5-0.3-1.2-0.5-1.9-0.5c-0.9,0-1.6,0.2-2.2,0.7c-0.5,0.4-0.8,0.9-1.1,1.6l0-2.1h-2.4v10.7h2.5
		v-6.3c0-0.5,0.1-1,0.3-1.3s0.5-0.7,0.8-0.8s0.7-0.3,1.2-0.3c0.7,0,1.2,0.2,1.5,0.6s0.6,1,0.6,1.7v6.4h2.5v-6.8
		c0-0.9-0.2-1.6-0.5-2.2S50.3,114,49.8,113.7z"/>
	<path class="st1" d="M66.1,110.4c-0.8-0.4-1.7-0.6-2.8-0.6H58v14.3h2.6v-4.8h2.7c1.1,0,2-0.2,2.8-0.6s1.3-1,1.7-1.7
		c0.4-0.7,0.6-1.5,0.6-2.4c0-0.9-0.2-1.7-0.6-2.4S66.9,110.8,66.1,110.4z M65.5,115.9c-0.2,0.4-0.5,0.7-0.9,0.9s-0.9,0.3-1.6,0.3
		h-2.4V112H63c0.7,0,1.2,0.1,1.6,0.3c0.4,0.2,0.7,0.5,0.9,0.9c0.2,0.4,0.3,0.8,0.3,1.3C65.8,115.1,65.7,115.5,65.5,115.9z"/>
	<path class="st1" d="M77.8,114.5c-0.5-0.4-1-0.8-1.6-1c-0.6-0.2-1.2-0.3-1.9-0.3c-1,0-1.9,0.2-2.7,0.7c-0.8,0.5-1.3,1.1-1.8,1.9
		c-0.4,0.8-0.6,1.8-0.6,2.9c0,1.1,0.2,2.1,0.6,2.9s1,1.5,1.8,1.9c0.8,0.4,1.7,0.7,2.8,0.7c0.8,0,1.5-0.1,2.1-0.4
		c0.6-0.2,1.1-0.6,1.6-1s0.7-0.9,0.9-1.5l-2.3-0.5c-0.1,0.3-0.3,0.6-0.5,0.8s-0.5,0.4-0.8,0.5s-0.6,0.2-1,0.2c-0.6,0-1-0.1-1.4-0.3
		s-0.7-0.6-1-1.1c-0.2-0.4-0.3-0.9-0.3-1.5h7.4v-0.8c0-0.9-0.1-1.8-0.4-2.4C78.7,115.5,78.3,115,77.8,114.5z M73,115.6
		c0.4-0.3,0.8-0.4,1.4-0.4s1,0.1,1.4,0.4c0.4,0.3,0.6,0.6,0.8,1.1c0.1,0.3,0.2,0.7,0.2,1.1h-5c0-0.4,0.1-0.8,0.3-1.1
		C72.3,116.2,72.6,115.8,73,115.6z"/>
	<rect x="80.8" y="113.4" class="st1" width="2.5" height="10.7"/>
	<path class="st1" d="M82.1,109.1c-0.4,0-0.7,0.1-1,0.4c-0.3,0.3-0.4,0.6-0.4,1c0,0.4,0.1,0.7,0.4,1s0.6,0.4,1,0.4
		c0.4,0,0.8-0.1,1-0.4c0.3-0.3,0.4-0.6,0.4-1c0-0.4-0.1-0.7-0.4-1C82.8,109.3,82.5,109.1,82.1,109.1z"/>
	<path class="st1" d="M90.5,113.2c-0.6,0-1.2,0.2-1.6,0.5c-0.5,0.3-0.8,0.8-1,1.4h-0.1v-1.8h-2.4v10.7h2.5v-6.3
		c0-0.4,0.1-0.8,0.3-1.2s0.5-0.6,0.9-0.8c0.4-0.2,0.8-0.3,1.2-0.3c0.2,0,0.4,0,0.7,0s0.4,0.1,0.5,0.1v-2.3c-0.1,0-0.3,0-0.4-0.1
		C90.8,113.2,90.7,113.2,90.5,113.2z"/>
	<path class="st1" d="M101.3,115.9c-0.4-0.8-1-1.5-1.8-1.9s-1.7-0.7-2.7-0.7s-1.9,0.2-2.7,0.7c-0.8,0.5-1.4,1.1-1.8,1.9
		s-0.6,1.8-0.6,2.9c0,1.1,0.2,2.1,0.6,2.9s1,1.5,1.8,1.9c0.8,0.5,1.7,0.7,2.7,0.7c1.1,0,2-0.2,2.7-0.7c0.8-0.5,1.4-1.1,1.8-1.9
		s0.6-1.8,0.6-2.9C101.9,117.7,101.7,116.7,101.3,115.9z M99.1,120.6c-0.2,0.5-0.5,0.9-0.9,1.3c-0.4,0.3-0.9,0.5-1.4,0.5
		c-0.6,0-1.1-0.2-1.4-0.5c-0.4-0.3-0.7-0.7-0.8-1.3c-0.2-0.5-0.3-1.1-0.3-1.8c0-0.7,0.1-1.3,0.3-1.8s0.5-0.9,0.8-1.3
		c0.4-0.3,0.9-0.5,1.4-0.5s1.1,0.2,1.4,0.5c0.4,0.3,0.7,0.7,0.9,1.3s0.3,1.1,0.3,1.8C99.4,119.4,99.3,120,99.1,120.6z"/>
</g>
</svg>
