<?xml version="1.0" encoding="utf-8"?>
<!-- Generator: Adobe Illustrator 28.0.0, SVG Export Plug-In . SVG Version: 6.00 Build 0)  -->
<svg version="1.1" id="Layer_1" xmlns="http://www.w3.org/2000/svg" xmlns:xlink="http://www.w3.org/1999/xlink" x="0px" y="0px"
	 width="410px" height="240px" viewBox="0 0 410 240" style="enable-background:new 0 0 410 240;" xml:space="preserve">
<style type="text/css">
	.st0{fill:#E5E5E4;}
	.st1{fill:#B6792A;}
</style>
<g>
	<path class="st0" d="M127.25,60.25L13.06,174.43c-4.37,4.37-1.27,11.85,4.91,11.85h72.2c23.41,0,42.39-18.97,42.39-42.39V62.44
		C132.56,59.67,129.21,58.29,127.25,60.25z"/>
	<path class="st1" d="M273.68,182.09V62.44c0-2.77,3.34-4.16,5.3-2.2l35.31,35.31c3.28-7.55,4.94-15.36,4.94-23.44
		c0-12.04-3.01-22.94-9.03-32.68c-6.02-9.74-14.12-17.62-24.31-23.65c-10.18-6.02-21.84-9.03-34.98-9.03L158.2,7.19
		c-3.7,0.02-6.69,3.03-6.69,6.73v50.36l0.16,0v-0.91c0-2.13,1.91-3.86,4.26-3.86l75.3-0.05c22.43-0.02,33.67,24.52,17.81,38.87
		l-47.97,44.4h39.99c4.6,0,8.76,1.04,12.48,3.12c3.72,2.08,6.62,4.93,8.7,8.54c2.08,3.61,3.12,7.61,3.12,11.99
		c0,4.6-1.1,8.65-3.28,12.15c-2.19,3.51-5.09,6.24-8.7,8.21c-3.61,1.97-7.72,2.96-12.32,2.96h-82.82c-3.72,0-6.73,3.01-6.73,6.73
		v33.51c0,3.72,3.01,6.73,6.73,6.73h91.36c13.14,0,25.01-3.01,35.64-9.03c10.62-6.02,19.05-14.23,25.29-24.63
		c3.15-5.25,5.51-10.83,7.07-16.72h-39.72C275.56,186.28,273.68,184.4,273.68,182.09z"/>
	<path class="st0" d="M397.75,179.01l-83.46-83.45l-35.31-35.31c-1.96-1.96-5.3-0.58-5.3,2.2v119.64c0,2.31,1.88,4.19,4.19,4.19
		h39.72h77.15C398.53,186.28,400.43,181.69,397.75,179.01z"/>
	<path class="st0" d="M248.8,98.08c15.75-14.25,4.59-38.62-17.69-38.61l-74.79,0.05c-2.34,0.01-4.23,1.72-4.23,3.84v0.92l-0.42,0
		v117.11c0,2.57,3.43,3.85,5.43,2.04l43.97-40.7h0L248.8,98.08z"/>
</g>
</svg>
