<?xml version="1.0" encoding="utf-8"?>
<!-- Generator: Adobe Illustrator 28.0.0, SVG Export Plug-In . SVG Version: 6.00 Build 0)  -->
<svg version="1.1" id="Layer_1" xmlns="http://www.w3.org/2000/svg" xmlns:xlink="http://www.w3.org/1999/xlink" x="0px" y="0px"
	 viewBox="0 0 800 800" style="enable-background:new 0 0 800 800;" xml:space="preserve">
<style type="text/css">
	.st0{fill:#FFFFFF;}
	.st1{fill:#FC7E00;}
	.st2{fill:#231F20;}
	.st3{fill:#8E8E8E;}
	.st4{fill:#2D2D2D;}
	.st5{fill:#5E5E5E;}
	.st6{fill:#133C99;}
</style>
<g>
	<path class="st0" d="M400.1,756.8c-48.1,0-94.9-9.4-138.9-28c-42.5-18-80.6-43.7-113.4-76.5s-58.5-70.9-76.4-113.4
		c-18.6-44-28-90.7-28-138.9s9.4-94.9,28-138.9c18-42.5,43.7-80.6,76.4-113.4c32.8-32.8,70.9-58.5,113.4-76.4
		c44-18.6,90.7-28,138.9-28s94.9,9.4,138.8,28c42.5,18,80.6,43.7,113.4,76.4c32.8,32.8,58.5,70.9,76.5,113.4
		c18.6,44,28,90.7,28,138.9s-9.4,94.9-28,138.9c-18,42.5-43.7,80.6-76.5,113.4s-70.9,58.5-113.4,76.5
		C495,747.3,448.3,756.8,400.1,756.8z M400.1,46.3C205.1,46.3,46.4,205,46.4,400s158.7,353.7,353.7,353.7
		c195,0,353.7-158.7,353.7-353.7S595.2,46.3,400.1,46.3z"/>
</g>
<g id="about">
	<path class="st1" d="M402.5,175.1c-0.8-0.6-1.8-1-2.9-1s-2.1,0.3-2.9,1c-0.8,0.6-1.4,1.5-1.8,2.7s-0.6,2.4-0.6,3.9
		c0,1.4,0.2,2.7,0.6,3.8s1,2,1.8,2.7s1.8,1,2.9,1s2.1-0.3,2.9-1s1.4-1.6,1.8-2.7c0.4-1.1,0.6-2.4,0.6-3.8c0-1.4-0.2-2.7-0.6-3.9
		C403.9,176.6,403.3,175.8,402.5,175.1z"/>
	<path class="st1" d="M375.5,175.2c-0.8-0.6-1.7-0.9-2.9-0.9c-1.1,0-2.1,0.3-2.9,0.9s-1.4,1.5-1.8,2.6s-0.6,2.4-0.6,3.9
		c0,1.5,0.2,2.8,0.6,3.9s1,2,1.8,2.6s1.7,0.9,2.9,0.9c1.1,0,2.1-0.3,2.9-0.9c0.8-0.6,1.4-1.5,1.8-2.6s0.6-2.4,0.6-3.8
		s-0.2-2.7-0.6-3.8S376.3,175.8,375.5,175.2z"/>
	<path class="st1" d="M399.1,58C307,58,223.4,94.6,162.1,154L399,390.9l237.1-237.1C574.7,94.5,491.2,58,399.1,58z M350.3,193.8
		l-2.5-7.6h-11.6l-2.4,7.6h-7.4l11.2-32.7h8.8l11.5,32.7H350.3z M383.3,188.5c-0.9,1.9-2.1,3.3-3.6,4.3c-1.5,1-3.2,1.5-5.1,1.5
		c-1.3,0-2.5-0.2-3.4-0.7s-1.7-1-2.2-1.7s-1-1.3-1.3-2h-0.3v3.9h-6.5v-32.7h6.6v12.3h0.2c0.3-0.6,0.7-1.3,1.3-2s1.3-1.3,2.2-1.7
		s2.1-0.7,3.5-0.7c1.8,0,3.5,0.5,5,1.4s2.7,2.3,3.6,4.2s1.4,4.2,1.4,7C384.7,184.3,384.2,186.6,383.3,188.5z M410.1,188.3
		c-1,1.9-2.4,3.4-4.1,4.4s-3.9,1.6-6.4,1.6c-2.5,0-4.6-0.5-6.4-1.6c-1.8-1.1-3.2-2.5-4.2-4.4c-1-1.9-1.5-4.1-1.5-6.6
		c0-2.6,0.5-4.8,1.5-6.7s2.4-3.4,4.2-4.4c1.8-1.1,3.9-1.6,6.4-1.6c2.5,0,4.6,0.5,6.4,1.6c1.8,1.1,3.2,2.5,4.1,4.4
		c1,1.9,1.5,4.1,1.5,6.7C411.6,184.2,411.1,186.4,410.1,188.3z M437.9,193.8h-6.2l-0.1-5.2c-0.6,1.6-1.5,2.9-2.6,3.8
		c-1.3,1.1-3,1.7-5,1.7c-1.7,0-3.2-0.4-4.5-1.1s-2.3-1.8-3-3.2c-0.7-1.4-1-3-1-4.9v-15.6h6.6v14.5c0,1.5,0.4,2.7,1.2,3.6
		s1.9,1.3,3.2,1.3c0.9,0,1.8-0.2,2.5-0.6c0.7-0.4,1.3-1,1.7-1.8c0.4-0.8,0.6-1.7,0.6-2.8v-14.2h6.6L437.9,193.8L437.9,193.8z
		 M451.3,194.2c-2.5,0-4.3-0.6-5.6-1.8c-1.3-1.2-2-2.9-2-5.2v-12.9h-3.4v-5h3.4v-5.8h6.6v5.8h4.6v5h-4.6v12.4c0,0.8,0.2,1.4,0.5,1.7
		c0.3,0.4,0.9,0.6,1.7,0.6c0.2,0,0.6,0,1-0.1c0.5-0.1,0.8-0.1,1-0.2l0.9,4.9c-0.7,0.2-1.5,0.4-2.2,0.5
		C452.7,194.1,452,194.2,451.3,194.2z"/>
	<path class="st1" d="M343.1,171.4c-0.4-1.6-0.9-3.2-1.3-5c-0.4,1.8-0.9,3.4-1.2,5c-0.6,2.4-1.2,4.6-1.8,6.6l-0.9,2.9h8.2l-1-2.9
		C344.4,176,343.8,173.8,343.1,171.4z"/>
</g>
<g id="code">
	<path class="st1" d="M609.3,392.4c-0.8-0.6-1.8-1-3-1s-2.2,0.3-2.9,1c-0.8,0.6-1.4,1.5-1.8,2.7s-0.6,2.4-0.6,3.9
		c0,1.4,0.2,2.7,0.6,3.8c0.4,1.1,1,2,1.8,2.7c0.8,0.6,1.8,1,2.9,1s2.2-0.3,3-1s1.4-1.5,1.8-2.7s0.6-2.4,0.6-3.8
		c0-1.5-0.2-2.7-0.6-3.9S610.1,393,609.3,392.4z"/>
	<path class="st1" d="M645.3,163.1L408.2,400.1l236,236c59.4-61.4,95.9-145,95.9-237.1C740.1,307.5,704,224.3,645.3,163.1z
		 M590,404.3c-0.7,1.4-1.7,2.6-2.9,3.7s-2.6,2-4.3,2.6c-1.7,0.6-3.5,0.9-5.6,0.9c-2.9,0-5.5-0.7-7.8-2s-4.1-3.2-5.4-5.7
		s-2-5.5-2-9.1c0-3.6,0.7-6.6,2-9.1s3.2-4.4,5.5-5.8s4.9-2,7.8-2c1.9,0,3.6,0.3,5.2,0.8s3,1.3,4.3,2.3s2.3,2.2,3,3.7
		s1.3,3.1,1.6,4.9h-6.8c-0.2-0.9-0.4-1.7-0.8-2.4s-0.9-1.3-1.6-1.8s-1.3-0.9-2.1-1.1c-0.8-0.3-1.7-0.4-2.6-0.4
		c-1.7,0-3.2,0.4-4.5,1.3c-1.3,0.9-2.3,2.1-3,3.7c-0.7,1.6-1.1,3.6-1.1,5.9c0,2.4,0.4,4.3,1.1,6s1.7,2.8,3,3.6s2.8,1.2,4.4,1.2
		c0.9,0,1.8-0.1,2.6-0.4s1.5-0.6,2.2-1.1c0.6-0.5,1.2-1.1,1.6-1.8c0.4-0.7,0.7-1.5,0.9-2.4h6.8C591.2,401.4,590.7,402.9,590,404.3z
		 M616.9,405.6c-1,1.9-2.4,3.4-4.2,4.4c-1.8,1.1-3.9,1.6-6.4,1.6c-2.5,0-4.6-0.5-6.4-1.6s-3.2-2.5-4.2-4.4s-1.5-4.1-1.5-6.6
		c0-2.5,0.5-4.8,1.5-6.7c1-1.9,2.4-3.4,4.2-4.4s3.9-1.6,6.4-1.6c2.5,0,4.6,0.5,6.4,1.6c1.8,1.1,3.2,2.5,4.2,4.4
		c1,1.9,1.5,4.1,1.5,6.7C618.4,401.5,617.9,403.7,616.9,405.6z M645,411.1h-6.5v-3.9h-0.3c-0.3,0.7-0.7,1.3-1.3,2s-1.3,1.2-2.2,1.7
		c-0.9,0.5-2.1,0.7-3.4,0.7c-1.9,0-3.6-0.5-5.1-1.5s-2.7-2.4-3.6-4.3s-1.3-4.2-1.3-6.9c0-2.8,0.5-5.1,1.4-7s2.1-3.3,3.6-4.2
		s3.2-1.4,5-1.4c1.4,0,2.5,0.2,3.5,0.7s1.7,1,2.2,1.7s1,1.4,1.3,2h0.2v-12.3h6.6L645,411.1L645,411.1z M656.1,403.7
		c0.5,1,1.1,1.7,2,2.2c0.9,0.5,1.9,0.7,3,0.7c0.8,0,1.5-0.1,2.1-0.3s1.2-0.5,1.6-1c0.5-0.4,0.8-1,1-1.6l6,1.1
		c-0.4,1.4-1.1,2.5-2.1,3.5c-1,1-2.2,1.8-3.7,2.4c-1.5,0.6-3.2,0.8-5.1,0.8c-2.5,0-4.7-0.5-6.5-1.5s-3.2-2.5-4.2-4.4
		c-1-1.9-1.5-4.1-1.5-6.7c0-2.5,0.5-4.8,1.5-6.7s2.3-3.4,4.1-4.5s3.8-1.6,6.2-1.6c1.6,0,3.1,0.3,4.5,0.8c1.4,0.5,2.6,1.3,3.7,2.3
		c1,1,1.9,2.3,2.5,3.9c0.6,1.5,0.9,3.4,0.9,5.5v1.9h-16.8C655.4,401.8,655.7,402.9,656.1,403.7z"/>
	<path class="st1" d="M636.1,392.4c-0.8-0.6-1.8-0.9-2.9-0.9c-1.2,0-2.1,0.3-2.9,0.9s-1.4,1.5-1.8,2.6s-0.6,2.4-0.6,3.8
		s0.2,2.7,0.6,3.8c0.4,1.1,1,2,1.8,2.6s1.8,0.9,2.9,0.9c1.1,0,2.1-0.3,2.9-0.9s1.4-1.5,1.8-2.6c0.4-1.1,0.6-2.4,0.6-3.9
		c0-1.5-0.2-2.8-0.6-3.9S636.9,393,636.1,392.4z"/>
	<path class="st1" d="M663.5,392c-0.8-0.5-1.7-0.8-2.8-0.8c-1.1,0-2.1,0.3-2.9,0.8s-1.4,1.2-1.8,2.1c-0.3,0.7-0.5,1.4-0.6,2.3h10.4
		c-0.1-0.8-0.2-1.6-0.5-2.2C664.9,393.2,664.3,392.5,663.5,392z"/>
</g>
<g id="webgl">
	<path class="st1" d="M185,392.5c-0.8-0.6-1.7-0.9-2.9-0.9c-1.1,0-2.1,0.3-2.9,0.9s-1.4,1.5-1.8,2.5s-0.6,2.4-0.6,3.9
		c0,1.5,0.2,2.8,0.6,3.9c0.4,1.1,1,2,1.8,2.6s1.7,0.9,2.9,0.9c1.1,0,2.1-0.3,2.9-0.9s1.4-1.5,1.8-2.6s0.6-2.4,0.6-3.8
		s-0.2-2.7-0.6-3.8C186.4,394,185.8,393.1,185,392.5z"/>
	<path class="st1" d="M158,392c-0.8-0.5-1.7-0.8-2.9-0.8c-1.1,0-2.1,0.3-2.9,0.8s-1.4,1.2-1.8,2.1c-0.3,0.7-0.5,1.4-0.6,2.3h10.4
		c-0.1-0.8-0.2-1.6-0.5-2.2C159.3,393.2,158.8,392.5,158,392z"/>
	<path class="st1" d="M152.9,163.2C94.2,224.4,58.1,307.5,58.1,399c0,92.1,36.5,175.6,95.8,237l235.9-235.9L152.9,163.2z
		 M126.9,411.1l-4.3-16.7c-0.5-1.9-0.9-3.9-1.2-6c-0.1-0.6-0.2-1.2-0.3-1.8c-0.1,0.6-0.2,1.1-0.3,1.7c-0.3,2.1-0.7,4.2-1.2,6.2
		l-4.3,16.7h-7.7l-8.8-32.7h7.3l3.8,16.1c0.3,1.4,0.6,2.8,0.8,4.3s0.5,3.1,0.8,4.6c0.1,0.3,0.1,0.6,0.2,1c0.1-0.3,0.1-0.6,0.2-1
		c0.3-1.5,0.5-3.1,0.8-4.6s0.6-3,0.9-4.3l4-16.1h7l4,16.1c0.3,1.4,0.6,2.8,0.9,4.3s0.6,3.1,0.8,4.6c0.1,0.3,0.1,0.6,0.2,0.9
		c0.1-0.3,0.1-0.6,0.1-0.9c0.2-1.5,0.5-3.1,0.8-4.6s0.6-3,0.9-4.3l3.8-16.1h7.3l-8.8,32.7L126.9,411.1L126.9,411.1z M166.6,400.5
		h-16.8c0,1.2,0.3,2.3,0.7,3.2c0.5,1,1.1,1.7,2,2.2c0.9,0.5,1.9,0.7,3,0.7c0.8,0,1.5-0.1,2.1-0.3s1.2-0.5,1.6-1c0.4-0.4,0.8-1,1-1.6
		l6,1.1c-0.4,1.4-1.1,2.5-2.1,3.5c-1,1-2.2,1.8-3.7,2.4c-1.5,0.6-3.2,0.8-5.1,0.8c-2.5,0-4.7-0.5-6.5-1.5s-3.2-2.5-4.2-4.4
		c-1-1.9-1.5-4.1-1.5-6.7c0-2.5,0.5-4.8,1.4-6.7s2.3-3.4,4.1-4.5s3.9-1.6,6.2-1.6c1.6,0,3.1,0.3,4.5,0.8s2.6,1.3,3.7,2.3
		c1.1,1,1.9,2.3,2.5,3.9c0.6,1.5,0.9,3.4,0.9,5.5V400.5z M192.8,405.8c-0.9,1.9-2.1,3.3-3.6,4.3s-3.2,1.5-5.1,1.5
		c-1.3,0-2.5-0.2-3.4-0.7s-1.7-1-2.2-1.7c-0.6-0.7-1-1.3-1.3-2h-0.3v3.9h-6.5v-32.7h6.6v12.3h0.2c0.3-0.6,0.7-1.3,1.3-2
		c0.6-0.7,1.3-1.3,2.2-1.7s2.1-0.7,3.5-0.7c1.8,0,3.5,0.5,5,1.4c1.5,0.9,2.7,2.3,3.6,4.2s1.4,4.2,1.4,7
		C194.1,401.6,193.7,403.9,192.8,405.8z M226.8,397.8c0,2.9-0.6,5.3-1.8,7.4c-1.2,2.1-2.9,3.6-5,4.8s-4.6,1.7-7.3,1.7
		c-3.1,0-5.8-0.7-8.1-2c-2.3-1.4-4.1-3.3-5.4-5.8c-1.3-2.5-1.9-5.5-1.9-8.9c0-3.5,0.7-6.6,2-9.1s3.2-4.4,5.5-5.8s4.9-2,7.8-2
		c1.9,0,3.6,0.3,5.1,0.8c1.6,0.5,3,1.3,4.2,2.3c1.2,1,2.2,2.1,3,3.5s1.3,2.8,1.5,4.5h-6.8c-0.2-0.8-0.6-1.5-1-2.1s-0.9-1.1-1.5-1.6
		c-0.6-0.4-1.3-0.8-2-1s-1.6-0.3-2.5-0.3c-1.7,0-3.2,0.4-4.5,1.3c-1.3,0.8-2.3,2.1-3,3.7s-1.1,3.6-1.1,5.9s0.4,4.3,1.1,5.9
		s1.7,2.9,3,3.7s2.8,1.3,4.6,1.3c1.6,0,2.9-0.3,4.1-0.9s2-1.4,2.6-2.5c0.6-1,0.9-2.2,0.9-3.5h-7.1v-5.1h13.6L226.8,397.8
		L226.8,397.8z M231.2,411.1v-32.7h6.7v27.2h14.1v5.6H231.2z"/>
</g>
<g id="Contact">
	<path class="st1" d="M362.8,605.8c-0.8-0.6-1.8-1-2.9-1s-2.1,0.3-2.9,1s-1.4,1.5-1.8,2.7s-0.6,2.4-0.6,3.9c0,1.4,0.2,2.7,0.6,3.8
		c0.4,1.1,1,2,1.8,2.7c0.8,0.7,1.8,1,2.9,1s2.1-0.3,2.9-1c0.8-0.7,1.4-1.5,1.8-2.7c0.4-1.1,0.6-2.4,0.6-3.8c0-1.5-0.2-2.7-0.6-3.9
		C364.2,607.4,363.6,606.5,362.8,605.8z"/>
	<path class="st1" d="M430.5,613.8c-0.5,0.1-1,0.2-1.4,0.2s-0.9,0.1-1.2,0.2c-0.8,0.1-1.5,0.3-2.1,0.6s-1.1,0.6-1.4,1
		c-0.3,0.4-0.5,1-0.5,1.7c0,0.6,0.2,1.2,0.5,1.6c0.3,0.4,0.8,0.8,1.3,1s1.2,0.3,1.9,0.3c1,0,2-0.2,2.7-0.6c0.8-0.4,1.4-1,1.8-1.7
		s0.7-1.5,0.7-2.3v-2.7c-0.2,0.2-0.5,0.3-0.9,0.4C431.5,613.6,431,613.7,430.5,613.8z"/>
	<path class="st1" d="M398.6,409.5L162.7,645.3c61.3,58.8,144.4,94.9,236,94.9c91.5,0,174.6-36.1,235.9-94.8L398.6,409.5z
		 M343.6,617.7c-0.7,1.4-1.7,2.6-2.9,3.7s-2.6,2-4.3,2.6c-1.7,0.6-3.5,1-5.6,1c-2.9,0-5.5-0.7-7.8-2s-4.1-3.2-5.4-5.7
		c-1.3-2.5-2-5.5-2-9.1c0-3.6,0.7-6.6,2-9.1s3.1-4.4,5.5-5.8s4.9-2,7.8-2c1.9,0,3.6,0.3,5.2,0.8c1.6,0.5,3,1.3,4.3,2.3
		s2.3,2.2,3,3.7s1.3,3.1,1.6,4.9h-6.8c-0.1-0.9-0.4-1.7-0.9-2.4c-0.4-0.7-0.9-1.3-1.6-1.8s-1.3-0.9-2.1-1.1
		c-0.8-0.3-1.7-0.4-2.6-0.4c-1.7,0-3.2,0.4-4.5,1.3s-2.3,2.1-3,3.7s-1.1,3.6-1.1,5.9c0,2.4,0.4,4.3,1.1,6c0.7,1.6,1.7,2.8,3,3.7
		c1.3,0.8,2.8,1.2,4.4,1.2c0.9,0,1.8-0.1,2.6-0.4c0.8-0.3,1.5-0.6,2.1-1.1c0.6-0.5,1.2-1.1,1.6-1.8c0.4-0.7,0.7-1.5,0.9-2.4h6.8
		C344.8,614.9,344.4,616.3,343.6,617.7z M370.4,619c-1,1.9-2.4,3.4-4.1,4.4s-3.9,1.6-6.4,1.6c-2.5,0-4.6-0.5-6.4-1.6
		c-1.8-1.1-3.2-2.5-4.2-4.4s-1.5-4.1-1.5-6.6c0-2.5,0.5-4.8,1.5-6.7c1-1.9,2.4-3.4,4.2-4.4c1.8-1.1,3.9-1.6,6.4-1.6
		c2.5,0,4.6,0.5,6.4,1.6c1.8,1.1,3.2,2.5,4.1,4.4s1.5,4.1,1.5,6.7C371.9,614.9,371.4,617.1,370.4,619z M398.1,624.6h-6.6v-14.5
		c0-1.5-0.4-2.7-1.2-3.6c-0.8-0.9-1.9-1.3-3.3-1.3c-0.9,0-1.8,0.2-2.5,0.6c-0.7,0.4-1.3,1-1.7,1.8s-0.6,1.7-0.6,2.8v14.2h-6.6V600
		h6.2l0.1,5.1c0.6-1.6,1.5-2.8,2.6-3.8c1.3-1.1,3-1.7,5.1-1.7c1.7,0,3.2,0.4,4.5,1.1s2.2,1.8,2.9,3.2c0.7,1.4,1,3,1,5L398.1,624.6
		L398.1,624.6z M413.6,624.8c-0.7,0.1-1.4,0.1-2.1,0.1c-2.5,0-4.3-0.6-5.7-1.8c-1.3-1.2-2-2.9-2-5.2V605h-3.4v-5h3.4v-5.8h6.6v5.8
		h4.6v5h-4.6v12.3c0,0.8,0.2,1.3,0.5,1.7c0.3,0.4,0.9,0.6,1.7,0.6c0.2,0,0.6,0,1-0.1c0.5-0.1,0.8-0.1,1-0.2l0.9,4.9
		C415,624.5,414.3,624.7,413.6,624.8z M439.3,624.6H433v-3.4h-0.2c-0.4,0.8-0.9,1.4-1.6,2c-0.7,0.6-1.5,1-2.4,1.4
		c-0.9,0.3-2,0.5-3.2,0.5c-1.5,0-3-0.3-4.2-0.8s-2.2-1.4-2.9-2.5c-0.7-1.1-1.1-2.5-1.1-4.1c0-1.4,0.2-2.5,0.8-3.4s1.2-1.7,2.1-2.2
		c0.9-0.6,1.9-1,3-1.3c1.1-0.3,2.3-0.5,3.5-0.6c1.4-0.2,2.6-0.3,3.4-0.4c0.9-0.1,1.5-0.3,1.9-0.6c0.4-0.3,0.6-0.7,0.6-1.2v-0.1
		c0-0.7-0.2-1.3-0.4-1.8s-0.7-0.8-1.3-1.1s-1.3-0.4-2.1-0.4c-0.8,0-1.6,0.1-2.2,0.4s-1.1,0.6-1.5,1c-0.4,0.4-0.7,0.9-0.9,1.4l-6-1
		c0.4-1.4,1.1-2.7,2.1-3.7s2.2-1.8,3.7-2.3c1.5-0.5,3.1-0.8,4.9-0.8c1.3,0,2.6,0.2,3.8,0.5s2.4,0.8,3.3,1.5c1,0.7,1.8,1.5,2.3,2.6
		c0.6,1.1,0.9,2.3,0.9,3.8L439.3,624.6L439.3,624.6z M464.8,620.2c-0.6,1-1.4,1.9-2.3,2.6s-2,1.3-3.3,1.7s-2.6,0.6-4,0.6
		c-2.5,0-4.6-0.5-6.4-1.6c-1.8-1.1-3.2-2.5-4.2-4.4c-1-1.9-1.5-4.1-1.5-6.6c0-2.5,0.5-4.8,1.5-6.7c1-1.9,2.4-3.4,4.2-4.4
		c1.8-1.1,3.9-1.6,6.4-1.6c1.5,0,2.8,0.2,4,0.6s2.3,0.9,3.3,1.6s1.7,1.6,2.3,2.6s1,2.2,1.3,3.4l-6.1,1.1c-0.1-0.6-0.3-1.2-0.6-1.7
		c-0.3-0.5-0.6-0.9-1-1.3c-0.4-0.4-0.8-0.6-1.4-0.8s-1.1-0.3-1.7-0.3c-1.2,0-2.2,0.3-3,0.9c-0.8,0.6-1.4,1.5-1.8,2.6
		c-0.4,1.1-0.6,2.4-0.6,3.9c0,1.5,0.2,2.7,0.6,3.9c0.4,1.1,1,2,1.8,2.7c0.8,0.6,1.8,1,3,1c0.6,0,1.2-0.1,1.7-0.3
		c0.5-0.2,1-0.5,1.4-0.9c0.4-0.4,0.8-0.8,1-1.3s0.5-1.1,0.6-1.8l6.1,1.1C465.8,618,465.4,619.2,464.8,620.2z M478.4,624.9
		c-2.5,0-4.3-0.6-5.7-1.8c-1.3-1.2-2-2.9-2-5.2V605h-3.4v-5h3.4v-5.8h6.6v5.8h4.6v5h-4.6v12.3c0,0.8,0.2,1.3,0.5,1.7
		c0.3,0.4,0.9,0.6,1.7,0.6c0.2,0,0.6,0,1-0.1c0.5-0.1,0.8-0.1,1-0.2l0.9,4.9c-0.7,0.2-1.5,0.4-2.2,0.5
		C479.7,624.9,479,624.9,478.4,624.9z"/>
</g>
<circle class="st2" cx="398.9" cy="400.5" r="119.7"/>
<circle class="st3" cx="399.3" cy="400.5" r="108.9"/>
<path class="st4" d="M451.6,405.4c-2.2,27.2-25,48.6-52.7,48.6c-27.7,0-50.5-21.5-52.7-48.6h-34.6c2.2,46.3,40.6,83.2,87.4,83.2
	s85.1-37,87.4-83.2H451.6z"/>
<path class="st5" d="M346.1,394.5c2.2-27.2,25-48.6,52.7-48.6c27.7,0,50.5,21.5,52.7,48.6h34.6c-2.2-46.3-40.6-83.2-87.4-83.2
	s-85.1,37-87.4,83.2H346.1z"/>
<path class="st0" d="M547.8,743.3c44.4-19.1,84.1-46.3,118.2-80.9c34.1-34.5,60.8-74.7,79.3-119.3c19.2-46.2,28.7-95.2,28.4-145.6
	c-0.3-50.4-10.5-99.3-30.3-145.2c-19.1-44.4-46.3-84.1-80.9-118.2c-18.7-18.4-39-34.7-60.8-48.7c0.5-1.3,0.8-2.6,0.7-4
	c0-6.1-5-11.1-11.2-11c-3.3,0-6.3,1.5-8.3,3.8c-12.8-7.2-26-13.6-39.7-19.3c-46.2-19.2-95.2-28.7-145.6-28.4S298.3,37,252.4,56.8
	c-44.4,19.1-84.1,46.3-118.2,80.9s-60.8,74.7-79.3,119.3c-19.2,46.2-28.7,95.2-28.4,145.6c0.3,50.4,10.5,99.3,30.3,145.2
	c19.1,44.4,46.3,84.1,80.9,118.2c34.5,34.1,74.7,60.8,119.3,79.3c46.2,19.2,95.2,28.7,145.6,28.4S501.9,763.1,547.8,743.3z
	 M29.7,402.5C28.3,198.2,193.4,31,397.7,29.6c66.6-0.4,129.3,16.8,183.5,47.3c-0.6,1.4-1,3-1,4.6c0,6.1,5,11.1,11.2,11
	c3.5,0,6.7-1.7,8.7-4.3c101.8,65.5,169.6,179.5,170.5,309.3c1.4,204.3-163.7,371.6-368,372.9C198.3,771.9,31,606.8,29.7,402.5z"/>
<path class="st6" d="M399.3,400.5h43.6c0,23.9-19.7,43.6-43.6,43.6s-43.6-19.7-43.6-43.6c0-23.9,19.6-43.5,43.5-43.6L399.3,400.5z"
	/>
</svg>
