<?xml version="1.0" encoding="utf-8"?>
<!-- Generator: Adobe Illustrator 28.0.0, SVG Export Plug-In . SVG Version: 6.00 Build 0)  -->
<svg version="1.1" xmlns="http://www.w3.org/2000/svg" xmlns:xlink="http://www.w3.org/1999/xlink" x="0px" y="0px"
	 viewBox="0 0 1080 1920" style="enable-background:new 0 0 1080 1920;" xml:space="preserve">
<style type="text/css">
	.st0{fill:#FFFFFF;}
	.st1{fill:#FC7E00;}
	.st2{fill:#231F20;}
	.st3{fill:#8E8E8E;}
	.st4{fill:#2D2D2D;}
	.st5{fill:#5E5E5E;}
	.st6{fill:#133C99;}
</style>
<g id="Layer_1">
</g>
<g id="inner">
	<g>
		<path class="st0" d="M543.71,1107.92c-48.15,0-94.87-9.43-138.85-28.03c-42.48-17.97-80.62-43.69-113.38-76.45
			c-32.76-32.76-58.48-70.91-76.44-113.38C196.43,846.08,187,799.36,187,751.21s9.43-94.87,28.03-138.85
			c17.97-42.48,43.69-80.62,76.44-113.38c32.76-32.76,70.91-58.48,113.38-76.44c43.98-18.6,90.69-28.03,138.85-28.03
			c48.16,0,94.87,9.43,138.85,28.03c42.48,17.97,80.62,43.69,113.38,76.44c32.76,32.76,58.48,70.91,76.45,113.38
			c18.6,43.98,28.03,90.69,28.03,138.85s-9.43,94.87-28.03,138.85c-17.97,42.48-43.69,80.62-76.45,113.38s-70.91,58.48-113.38,76.45
			C638.58,1098.49,591.86,1107.92,543.71,1107.92z M543.71,397.5C348.67,397.5,190,556.17,190,751.21s158.67,353.71,353.71,353.71
			c195.04,0,353.71-158.67,353.71-353.71S738.74,397.5,543.71,397.5z"/>
	</g>
</g>
<g id="menu">
	<g id="about">
		<path class="st1" d="M546.07,526.28c-0.79-0.64-1.77-0.97-2.94-0.97s-2.15,0.32-2.93,0.97c-0.78,0.64-1.37,1.53-1.77,2.66
			s-0.59,2.42-0.59,3.87c0,1.42,0.2,2.7,0.59,3.83s0.99,2.03,1.77,2.68c0.78,0.65,1.76,0.98,2.93,0.98s2.15-0.33,2.94-0.98
			s1.38-1.55,1.78-2.68c0.39-1.14,0.59-2.41,0.59-3.83c0-1.45-0.2-2.74-0.59-3.87C547.45,527.81,546.86,526.92,546.07,526.28z"/>
		<path class="st1" d="M519.12,526.35c-0.78-0.63-1.74-0.94-2.9-0.94c-1.13,0-2.09,0.3-2.88,0.91s-1.39,1.46-1.8,2.55
			s-0.62,2.38-0.62,3.88c0,1.48,0.21,2.77,0.63,3.88c0.42,1.11,1.02,1.97,1.81,2.58s1.74,0.92,2.86,0.92c1.14,0,2.11-0.31,2.89-0.94
			c0.78-0.63,1.38-1.5,1.78-2.61s0.6-2.39,0.6-3.82s-0.2-2.7-0.6-3.8S519.9,526.98,519.12,526.35z"/>
		<path class="st1" d="M542.71,409.21c-92.13,0-175.71,36.55-237.08,95.92l236.95,236.95l237.07-237.07
			C718.31,445.71,634.77,409.21,542.71,409.21z M493.87,545l-2.53-7.6h-11.63l-2.43,7.6h-7.4l11.18-32.74h8.79L501.32,545H493.87z
			 M526.92,539.67c-0.88,1.88-2.07,3.31-3.58,4.28c-1.51,0.97-3.21,1.46-5.1,1.46c-1.33,0-2.46-0.23-3.38-0.68s-1.67-1.01-2.25-1.68
			c-0.58-0.67-1.02-1.33-1.33-1.99h-0.31V545h-6.48v-32.74h6.59v12.3h0.2c0.31-0.64,0.74-1.31,1.31-2s1.31-1.27,2.23-1.74
			s2.08-0.7,3.47-0.7c1.82,0,3.48,0.47,4.99,1.41s2.71,2.34,3.61,4.22c0.9,1.88,1.35,4.21,1.35,7.01
			C528.24,535.49,527.8,537.79,526.92,539.67z M553.68,539.45c-0.97,1.9-2.36,3.38-4.15,4.44c-1.79,1.06-3.93,1.59-6.41,1.59
			c-2.46,0-4.59-0.53-6.39-1.59c-1.8-1.06-3.19-2.54-4.16-4.44c-0.97-1.9-1.46-4.11-1.46-6.62c0-2.55,0.49-4.77,1.46-6.67
			c0.97-1.9,2.36-3.38,4.16-4.44c1.8-1.06,3.93-1.59,6.39-1.59c2.48,0,4.61,0.53,6.41,1.59c1.79,1.06,3.18,2.54,4.15,4.44
			c0.97,1.9,1.46,4.12,1.46,6.67C555.14,535.35,554.65,537.56,553.68,539.45z M581.43,545h-6.24l-0.07-5.17
			c-0.63,1.6-1.49,2.88-2.6,3.81c-1.33,1.11-3.01,1.67-5.04,1.67c-1.7,0-3.19-0.37-4.46-1.11s-2.26-1.8-2.96-3.19
			c-0.7-1.38-1.04-3.04-1.04-4.95v-15.62h6.59v14.48c0,1.52,0.4,2.72,1.19,3.58s1.88,1.3,3.25,1.3c0.94,0,1.76-0.2,2.48-0.6
			c0.72-0.4,1.28-0.99,1.68-1.76c0.4-0.77,0.6-1.7,0.6-2.78v-14.22h6.61V545z M594.92,545.35c-2.46,0-4.34-0.6-5.65-1.8
			c-1.3-1.2-1.96-2.92-1.96-5.16v-12.92h-3.38v-5.03h3.38v-5.84h6.59v5.84h4.59v5.03h-4.59v12.35c0,0.78,0.17,1.35,0.52,1.73
			c0.34,0.37,0.92,0.56,1.72,0.56c0.25,0,0.6-0.03,1.05-0.1c0.45-0.07,0.8-0.13,1.03-0.19l0.94,4.94c-0.73,0.22-1.46,0.37-2.19,0.46
			C596.27,545.31,595.58,545.35,594.92,545.35z"/>
		<path class="st1" d="M486.7,522.51c-0.42-1.57-0.86-3.23-1.31-4.99c-0.43,1.77-0.85,3.45-1.24,5.03
			c-0.61,2.44-1.21,4.65-1.81,6.65l-0.94,2.94h8.2l-0.98-2.94C487.99,527.17,487.35,524.94,486.7,522.51z"/>
	</g>
	<g id="code">
		<path class="st1" d="M752.86,743.56c-0.79-0.64-1.77-0.97-2.95-0.97s-2.15,0.32-2.93,0.97c-0.78,0.64-1.37,1.53-1.77,2.66
			c-0.4,1.13-0.59,2.42-0.59,3.87c0,1.42,0.2,2.7,0.59,3.83c0.39,1.14,0.98,2.03,1.77,2.68c0.78,0.65,1.76,0.98,2.93,0.98
			s2.15-0.33,2.95-0.98s1.38-1.55,1.78-2.68s0.59-2.41,0.59-3.83c0-1.45-0.2-2.74-0.59-3.87S753.65,744.21,752.86,743.56z"/>
		<path class="st1" d="M788.84,514.21L551.78,751.28l236.01,236.01c59.37-61.36,95.92-144.95,95.92-237.08
			C883.71,658.62,847.59,575.48,788.84,514.21z M733.57,755.45c-0.72,1.39-1.69,2.64-2.89,3.74s-2.63,1.96-4.29,2.59
			c-1.65,0.63-3.52,0.94-5.58,0.94c-2.9,0-5.5-0.66-7.79-1.98c-2.29-1.32-4.1-3.23-5.43-5.73c-1.33-2.5-1.99-5.53-1.99-9.07
			c0-3.56,0.67-6.6,2-9.11s3.15-4.43,5.45-5.75s4.89-1.98,7.76-1.98c1.86,0,3.59,0.26,5.2,0.78c1.61,0.52,3.03,1.28,4.27,2.27
			s2.26,2.22,3.05,3.66s1.31,3.09,1.56,4.93h-6.79c-0.15-0.91-0.43-1.71-0.85-2.41c-0.42-0.7-0.94-1.29-1.56-1.78
			c-0.62-0.49-1.34-0.86-2.14-1.12c-0.81-0.26-1.68-0.38-2.62-0.38c-1.7,0-3.19,0.42-4.47,1.27c-1.28,0.85-2.28,2.08-2.99,3.7
			c-0.71,1.62-1.07,3.58-1.07,5.9c0,2.36,0.36,4.34,1.08,5.95s1.71,2.83,2.99,3.65s2.75,1.23,4.44,1.23c0.94,0,1.8-0.13,2.6-0.38
			s1.52-0.63,2.15-1.12c0.64-0.49,1.16-1.09,1.58-1.79c0.42-0.7,0.71-1.5,0.87-2.4h6.79C734.75,752.6,734.3,754.06,733.57,755.45z
			 M760.47,756.74c-0.97,1.9-2.36,3.38-4.15,4.44c-1.79,1.06-3.93,1.59-6.41,1.59c-2.46,0-4.59-0.53-6.39-1.59s-3.19-2.54-4.16-4.44
			c-0.97-1.9-1.46-4.11-1.46-6.62c0-2.55,0.49-4.77,1.46-6.67c0.97-1.9,2.36-3.38,4.16-4.44c1.8-1.06,3.93-1.59,6.39-1.59
			c2.48,0,4.61,0.53,6.41,1.59c1.79,1.06,3.18,2.54,4.15,4.44c0.97,1.9,1.46,4.12,1.46,6.67
			C761.93,752.63,761.45,754.84,760.47,756.74z M788.55,762.28h-6.48v-3.93h-0.33c-0.29,0.66-0.73,1.32-1.31,1.99
			s-1.33,1.23-2.25,1.68c-0.92,0.45-2.06,0.68-3.41,0.68c-1.88,0-3.57-0.49-5.09-1.46c-1.52-0.97-2.71-2.4-3.59-4.28
			s-1.32-4.19-1.32-6.91c0-2.8,0.45-5.13,1.36-7.01s2.12-3.28,3.63-4.22c1.51-0.94,3.17-1.41,4.99-1.41c1.39,0,2.55,0.23,3.47,0.7
			c0.92,0.47,1.67,1.05,2.24,1.74c0.57,0.69,1,1.35,1.27,2h0.22v-12.3h6.59V762.28z M799.66,754.9c0.48,0.97,1.14,1.69,2,2.18
			c0.86,0.48,1.86,0.73,3,0.73c0.78,0,1.48-0.11,2.11-0.33s1.17-0.55,1.62-0.98c0.45-0.43,0.79-0.96,1.02-1.59l5.98,1.12
			c-0.4,1.35-1.08,2.53-2.07,3.55c-0.98,1.02-2.21,1.81-3.68,2.36c-1.47,0.56-3.17,0.83-5.09,0.83c-2.5,0-4.67-0.51-6.48-1.54
			s-3.21-2.48-4.19-4.37c-0.97-1.89-1.46-4.13-1.46-6.72c0-2.53,0.48-4.75,1.45-6.66s2.34-3.39,4.11-4.46s3.85-1.6,6.24-1.6
			c1.61,0,3.11,0.26,4.5,0.77c1.39,0.51,2.61,1.29,3.67,2.32c1.05,1.03,1.88,2.33,2.47,3.88c0.59,1.55,0.89,3.38,0.89,5.49v1.85
			h-16.79C799.01,752.96,799.23,754.03,799.66,754.9z"/>
		<path class="st1" d="M779.69,743.6c-0.79-0.61-1.75-0.91-2.88-0.91c-1.16,0-2.13,0.31-2.91,0.94s-1.37,1.49-1.77,2.59
			c-0.4,1.1-0.59,2.37-0.59,3.8s0.2,2.71,0.6,3.82c0.4,1.11,1,1.98,1.78,2.61s1.75,0.94,2.89,0.94c1.11,0,2.07-0.31,2.86-0.92
			s1.39-1.48,1.8-2.58c0.41-1.11,0.62-2.4,0.62-3.88c0-1.49-0.2-2.79-0.6-3.88S780.48,744.2,779.69,743.6z"/>
		<path class="st1" d="M807.13,743.16c-0.77-0.52-1.72-0.78-2.85-0.78c-1.14,0-2.11,0.26-2.91,0.79c-0.8,0.53-1.4,1.24-1.81,2.14
			c-0.31,0.68-0.5,1.44-0.58,2.27h10.41c-0.08-0.82-0.25-1.57-0.52-2.23C808.48,744.41,807.9,743.68,807.13,743.16z"/>
	</g>
	<g id="webgl">
		<path class="st1" d="M328.6,743.63c-0.78-0.63-1.74-0.94-2.9-0.94c-1.13,0-2.09,0.3-2.88,0.91s-1.39,1.46-1.8,2.55
			s-0.62,2.38-0.62,3.88c0,1.48,0.21,2.77,0.63,3.88c0.42,1.11,1.02,1.97,1.81,2.58s1.74,0.92,2.86,0.92c1.14,0,2.11-0.31,2.89-0.94
			c0.78-0.63,1.38-1.5,1.78-2.61c0.4-1.11,0.6-2.39,0.6-3.82s-0.2-2.7-0.6-3.8C329.97,745.12,329.38,744.26,328.6,743.63z"/>
		<path class="st1" d="M301.56,743.16c-0.77-0.52-1.72-0.78-2.85-0.78c-1.14,0-2.11,0.26-2.91,0.79s-1.4,1.24-1.81,2.14
			c-0.31,0.68-0.5,1.44-0.58,2.27h10.41c-0.08-0.82-0.25-1.57-0.52-2.23C302.91,744.41,302.33,743.68,301.56,743.16z"/>
		<path class="st1" d="M296.45,514.34c-58.68,61.25-94.75,144.35-94.75,235.87c0,92.07,36.5,175.6,95.8,236.95l235.88-235.88
			L296.45,514.34z M270.5,762.28l-4.35-16.74c-0.47-1.86-0.87-3.87-1.2-6.04c-0.09-0.6-0.19-1.22-0.29-1.83
			c-0.09,0.57-0.18,1.14-0.26,1.7c-0.29,2.14-0.69,4.2-1.2,6.17l-4.33,16.74h-7.67l-8.79-32.74h7.32l3.8,16.11
			c0.31,1.35,0.59,2.79,0.85,4.32c0.26,1.53,0.51,3.07,0.76,4.61c0.05,0.33,0.11,0.65,0.16,0.98c0.06-0.33,0.11-0.65,0.17-0.98
			c0.26-1.55,0.53-3.08,0.81-4.61s0.59-2.97,0.92-4.32l4-16.11h6.97l3.98,16.11c0.34,1.35,0.64,2.79,0.92,4.32s0.55,3.07,0.82,4.61
			c0.05,0.31,0.11,0.6,0.16,0.91c0.05-0.3,0.1-0.6,0.15-0.91c0.24-1.55,0.5-3.08,0.77-4.61s0.55-2.97,0.85-4.32l3.8-16.11h7.34
			l-8.81,32.74H270.5z M310.19,751.71h-16.79c0.04,1.24,0.27,2.31,0.7,3.19c0.48,0.97,1.14,1.69,2,2.18c0.86,0.48,1.86,0.73,3,0.73
			c0.78,0,1.48-0.11,2.11-0.33s1.17-0.55,1.62-0.98c0.45-0.43,0.79-0.96,1.02-1.59l5.98,1.12c-0.4,1.35-1.08,2.53-2.07,3.55
			c-0.98,1.02-2.21,1.81-3.68,2.36c-1.47,0.56-3.17,0.83-5.09,0.83c-2.5,0-4.67-0.51-6.48-1.54s-3.21-2.48-4.19-4.37
			c-0.97-1.89-1.46-4.13-1.46-6.72c0-2.53,0.48-4.75,1.45-6.66s2.34-3.39,4.11-4.46s3.85-1.6,6.24-1.6c1.61,0,3.11,0.26,4.5,0.77
			s2.61,1.29,3.67,2.32c1.05,1.03,1.88,2.33,2.47,3.88c0.59,1.55,0.89,3.38,0.89,5.49V751.71z M336.4,756.96
			c-0.88,1.88-2.07,3.31-3.58,4.28c-1.51,0.97-3.21,1.46-5.1,1.46c-1.33,0-2.46-0.23-3.38-0.68s-1.67-1.01-2.25-1.68
			c-0.58-0.67-1.02-1.33-1.33-1.99h-0.31v3.93h-6.48v-32.74h6.59v12.3h0.2c0.31-0.64,0.74-1.31,1.31-2
			c0.56-0.69,1.31-1.27,2.23-1.74s2.08-0.7,3.47-0.7c1.82,0,3.48,0.47,4.99,1.41c1.51,0.94,2.71,2.34,3.61,4.22
			c0.9,1.88,1.35,4.21,1.35,7.01C337.72,752.77,337.28,755.07,336.4,756.96z M370.4,748.92c0,2.87-0.61,5.34-1.82,7.39
			c-1.22,2.06-2.89,3.64-5.01,4.75c-2.12,1.11-4.56,1.66-7.29,1.66c-3.06,0-5.75-0.68-8.05-2.03c-2.31-1.35-4.11-3.29-5.41-5.8
			c-1.3-2.51-1.94-5.49-1.94-8.93c0-3.54,0.67-6.57,2.02-9.09s3.17-4.44,5.47-5.77c2.3-1.33,4.88-2,7.76-2
			c1.85,0,3.56,0.27,5.15,0.8c1.59,0.54,3,1.29,4.24,2.27c1.24,0.98,2.25,2.14,3.03,3.48c0.78,1.34,1.29,2.82,1.53,4.45h-6.81
			c-0.23-0.79-0.56-1.5-0.98-2.12c-0.42-0.62-0.92-1.15-1.52-1.59c-0.59-0.44-1.27-0.77-2.03-1c-0.76-0.23-1.6-0.34-2.51-0.34
			c-1.68,0-3.17,0.42-4.46,1.26c-1.29,0.84-2.29,2.07-3.01,3.68s-1.08,3.57-1.08,5.89s0.36,4.28,1.07,5.9c0.71,1.62,1.71,2.85,3,3.7
			s2.81,1.27,4.57,1.27c1.58,0,2.94-0.29,4.07-0.86s2-1.39,2.6-2.45c0.58-1.01,0.87-2.19,0.9-3.53h-7.11v-5.1h13.62V748.92z
			 M374.82,762.28v-32.74h6.7v27.18h14.13v5.56H374.82z"/>
	</g>
	<g id="Contact">
		<path class="st1" d="M506.83,956.84c-0.79-0.64-1.77-0.97-2.94-0.97s-2.15,0.32-2.93,0.97s-1.37,1.53-1.77,2.66
			s-0.59,2.42-0.59,3.87c0,1.42,0.2,2.7,0.59,3.83c0.4,1.13,0.98,2.03,1.77,2.68c0.78,0.65,1.76,0.98,2.93,0.98s2.15-0.33,2.94-0.98
			c0.79-0.65,1.38-1.55,1.78-2.68c0.39-1.14,0.59-2.41,0.59-3.83c0-1.45-0.2-2.74-0.59-3.87
			C508.21,958.37,507.62,957.48,506.83,956.84z"/>
		<path class="st1" d="M574.53,964.81c-0.48,0.09-0.96,0.17-1.43,0.24s-0.89,0.13-1.25,0.18c-0.81,0.12-1.52,0.31-2.13,0.57
			s-1.09,0.61-1.43,1.04c-0.34,0.43-0.51,0.99-0.51,1.66c0,0.63,0.16,1.16,0.48,1.59c0.32,0.43,0.76,0.76,1.32,0.98
			s1.19,0.33,1.91,0.33c1.04,0,1.95-0.21,2.74-0.62c0.78-0.41,1.39-0.97,1.83-1.67s0.66-1.49,0.66-2.35v-2.66
			c-0.19,0.15-0.48,0.28-0.88,0.4C575.46,964.62,575.02,964.73,574.53,964.81z"/>
		<path class="st1" d="M542.58,760.47L306.71,996.34c61.26,58.75,144.41,94.87,235.99,94.87c91.52,0,174.62-36.06,235.87-94.75
			L542.58,760.47z M487.63,968.73c-0.72,1.39-1.69,2.64-2.89,3.74c-1.2,1.1-2.63,1.96-4.28,2.59c-1.66,0.63-3.52,0.95-5.58,0.95
			c-2.9,0-5.5-0.66-7.79-1.98c-2.29-1.32-4.1-3.23-5.43-5.74c-1.33-2.5-1.99-5.53-1.99-9.07c0-3.56,0.67-6.6,2-9.11
			s3.15-4.43,5.45-5.75s4.89-1.98,7.76-1.98c1.86,0,3.59,0.26,5.2,0.78c1.6,0.52,3.03,1.28,4.27,2.27s2.26,2.22,3.05,3.66
			s1.31,3.09,1.56,4.93h-6.79c-0.15-0.91-0.43-1.71-0.85-2.41c-0.42-0.7-0.94-1.29-1.56-1.78s-1.34-0.86-2.14-1.12
			c-0.81-0.26-1.68-0.38-2.61-0.38c-1.7,0-3.19,0.42-4.47,1.27s-2.28,2.08-2.99,3.7s-1.07,3.58-1.07,5.9c0,2.36,0.36,4.34,1.08,5.96
			c0.72,1.61,1.71,2.83,2.99,3.65c1.27,0.82,2.75,1.23,4.44,1.23c0.94,0,1.81-0.13,2.6-0.38c0.8-0.26,1.52-0.63,2.15-1.12
			c0.64-0.49,1.16-1.09,1.58-1.79c0.42-0.7,0.71-1.5,0.87-2.4h6.79C488.81,965.88,488.36,967.33,487.63,968.73z M514.44,970.01
			c-0.97,1.9-2.36,3.38-4.15,4.44c-1.79,1.06-3.93,1.59-6.41,1.59c-2.46,0-4.59-0.53-6.39-1.59c-1.8-1.06-3.19-2.54-4.16-4.44
			c-0.97-1.9-1.46-4.11-1.46-6.62c0-2.55,0.49-4.77,1.46-6.67c0.97-1.9,2.36-3.38,4.16-4.44c1.8-1.06,3.93-1.59,6.39-1.59
			c2.48,0,4.61,0.53,6.41,1.59c1.79,1.06,3.18,2.54,4.15,4.44c0.97,1.9,1.46,4.12,1.46,6.67
			C515.9,965.91,515.41,968.11,514.44,970.01z M542.07,975.56h-6.59v-14.48c0-1.52-0.39-2.72-1.18-3.58
			c-0.78-0.86-1.87-1.3-3.26-1.3c-0.92,0-1.75,0.2-2.47,0.6c-0.72,0.4-1.29,0.99-1.69,1.75c-0.4,0.76-0.6,1.69-0.6,2.79v14.22h-6.59
			v-24.57h6.22l0.09,5.13c0.63-1.56,1.47-2.83,2.56-3.75c1.31-1.12,3.01-1.68,5.09-1.68c1.7,0,3.18,0.37,4.45,1.11
			c1.27,0.74,2.25,1.8,2.94,3.19c0.7,1.38,1.04,3.04,1.04,4.95V975.56z M557.58,975.78c-0.72,0.09-1.42,0.13-2.08,0.13
			c-2.46,0-4.34-0.6-5.65-1.8c-1.3-1.2-1.96-2.92-1.96-5.16v-12.92h-3.38v-5.03h3.38v-5.84h6.59v5.84h4.59v5.03h-4.59v12.35
			c0,0.78,0.17,1.35,0.52,1.73c0.34,0.37,0.92,0.56,1.72,0.56c0.25,0,0.6-0.03,1.05-0.1c0.45-0.07,0.8-0.13,1.03-0.19l0.94,4.94
			C559.03,975.54,558.3,975.69,557.58,975.78z M583.28,975.56h-6.24v-3.41h-0.22c-0.4,0.76-0.92,1.43-1.58,2.01
			c-0.66,0.58-1.45,1.04-2.38,1.37c-0.93,0.34-2,0.5-3.22,0.5c-1.55,0-2.95-0.27-4.19-0.82c-1.24-0.55-2.21-1.37-2.92-2.46
			c-0.71-1.09-1.07-2.45-1.07-4.08c0-1.36,0.25-2.51,0.76-3.43c0.51-0.92,1.19-1.66,2.07-2.22c0.87-0.56,1.86-0.98,2.97-1.27
			c1.11-0.29,2.27-0.5,3.48-0.62c1.42-0.15,2.57-0.28,3.44-0.41c0.87-0.12,1.51-0.32,1.91-0.59c0.4-0.27,0.6-0.67,0.6-1.2v-0.11
			c0-0.7-0.15-1.3-0.44-1.78s-0.73-0.85-1.31-1.11c-0.58-0.26-1.28-0.38-2.1-0.38c-0.85,0-1.59,0.13-2.22,0.38s-1.14,0.6-1.54,1.02
			c-0.4,0.42-0.69,0.9-0.88,1.43l-6.04-0.99c0.42-1.44,1.13-2.65,2.11-3.65s2.2-1.76,3.66-2.29c1.46-0.53,3.1-0.79,4.93-0.79
			c1.32,0,2.6,0.16,3.84,0.47s2.36,0.8,3.35,1.46c0.99,0.66,1.77,1.52,2.35,2.58c0.58,1.06,0.87,2.33,0.87,3.81V975.56z
			 M608.77,971.18c-0.62,1.02-1.4,1.89-2.35,2.63s-2.05,1.29-3.29,1.67c-1.24,0.38-2.59,0.57-4.05,0.57c-2.48,0-4.61-0.53-6.41-1.59
			c-1.79-1.06-3.18-2.54-4.15-4.44c-0.97-1.9-1.46-4.11-1.46-6.62c0-2.55,0.49-4.77,1.46-6.67c0.97-1.9,2.36-3.38,4.15-4.44
			c1.79-1.06,3.93-1.59,6.41-1.59c1.45,0,2.79,0.19,4.02,0.57s2.32,0.92,3.27,1.63s1.74,1.56,2.35,2.57s1.04,2.15,1.27,3.41
			l-6.13,1.14c-0.13-0.64-0.34-1.22-0.62-1.72c-0.28-0.51-0.62-0.94-1.01-1.3c-0.4-0.36-0.85-0.63-1.37-0.82
			c-0.52-0.19-1.1-0.29-1.72-0.29c-1.17,0-2.16,0.31-2.96,0.94c-0.8,0.63-1.4,1.51-1.8,2.64c-0.4,1.13-0.6,2.43-0.6,3.91
			c0,1.45,0.2,2.74,0.6,3.87c0.4,1.13,1,2.01,1.8,2.66c0.8,0.64,1.78,0.97,2.96,0.97c0.63,0,1.21-0.1,1.74-0.3
			c0.53-0.2,1-0.48,1.41-0.86c0.41-0.37,0.75-0.82,1.03-1.35s0.48-1.12,0.59-1.78l6.13,1.12C609.81,969,609.38,970.16,608.77,971.18
			z M622.37,975.91c-2.46,0-4.34-0.6-5.65-1.8c-1.3-1.2-1.96-2.92-1.96-5.16v-12.92h-3.38v-5.03h3.38v-5.84h6.59v5.84h4.59v5.03
			h-4.59v12.35c0,0.78,0.17,1.35,0.52,1.73c0.34,0.37,0.92,0.56,1.72,0.56c0.25,0,0.6-0.03,1.05-0.1c0.45-0.07,0.8-0.13,1.03-0.19
			l0.94,4.94c-0.73,0.22-1.46,0.37-2.19,0.46C623.72,975.87,623.03,975.91,622.37,975.91z"/>
	</g>
</g>
<g id="menuCover">
	<circle class="st2" cx="542.5" cy="751.7" r="119.7"/>
</g>
<g id="camBG">
	<circle class="st3" cx="542.9" cy="751.7" r="108.9"/>
</g>
<g id="cam">
	<path class="st4" d="M595.18,756.57c-2.18,27.19-24.99,48.65-52.73,48.65c-27.74,0-50.55-21.46-52.73-48.65h-34.64
		c2.24,46.26,40.57,83.21,87.37,83.21c46.8,0,85.14-36.95,87.37-83.21H595.18z"/>
	<path class="st5" d="M489.72,745.72c2.18-27.19,24.99-48.65,52.73-48.65c27.74,0,50.55,21.46,52.73,48.65h34.64
		c-2.24-46.26-40.57-83.21-87.37-83.21c-46.8,0-85.14,36.95-87.37,83.21H489.72z"/>
</g>
<g id="outer">
	<path class="st0" d="M691.43,1094.48c44.36-19.11,84.14-46.32,118.22-80.86c34.08-34.54,60.75-74.67,79.27-119.29
		c19.17-46.19,28.73-95.18,28.39-145.62c-0.34-50.43-10.54-99.3-30.33-145.23c-19.11-44.36-46.32-84.14-80.86-118.22
		c-18.69-18.44-39.03-34.7-60.83-48.68c0.48-1.26,0.75-2.62,0.74-4.04c-0.04-6.14-5.05-11.08-11.19-11.04
		c-3.31,0.02-6.27,1.5-8.29,3.81c-12.8-7.19-26.05-13.64-39.72-19.31c-46.19-19.17-95.18-28.73-145.62-28.39
		c-50.43,0.34-99.3,10.54-145.23,30.33c-44.36,19.11-84.14,46.32-118.22,80.86c-34.08,34.54-60.75,74.67-79.27,119.29
		c-19.17,46.19-28.73,95.18-28.39,145.62c0.34,50.44,10.54,99.3,30.33,145.23c19.11,44.36,46.32,84.14,80.86,118.22
		c34.54,34.08,74.67,60.75,119.29,79.27c46.19,19.17,95.18,28.73,145.62,28.39S645.5,1114.27,691.43,1094.48z M173.25,753.68
		c-1.36-204.27,163.71-371.57,367.98-372.93c66.6-0.44,129.27,16.81,183.54,47.34c-0.63,1.41-0.98,2.96-0.97,4.6
		c0.04,6.14,5.05,11.08,11.19,11.04c3.52-0.02,6.65-1.69,8.67-4.26c101.77,65.5,169.64,179.47,170.5,309.27
		c1.36,204.27-163.71,371.57-367.98,372.93C341.91,1123.03,174.61,957.95,173.25,753.68z"/>
</g>
<g id="innerBlue">
	<path class="st6" d="M542.9,751.7h43.56c0,23.9-19.66,43.56-43.56,43.56s-43.56-19.66-43.56-43.56c0-23.86,19.6-43.51,43.46-43.56
		L542.9,751.7z"/>
</g>
</svg>
