<?xml version="1.0" encoding="utf-8"?>
<!-- Generator: Adobe Illustrator 28.0.0, SVG Export Plug-In . SVG Version: 6.00 Build 0)  -->
<svg version="1.1" id="Layer_1" xmlns="http://www.w3.org/2000/svg" xmlns:xlink="http://www.w3.org/1999/xlink" x="0px" y="0px"
	 viewBox="0 0 430 95" style="enable-background:new 0 0 430 95;" xml:space="preserve">
<style type="text/css">
	.st0{fill:#FFFFFF;}
	.st1{fill:#1E96C6;}
</style>
<g>
	<path class="st0" d="M88.5,93.2c-0.2-0.6-0.3-1.2-0.5-1.7c-0.2-0.5-0.3-1.2-0.5-1.9c-0.1-0.8-0.2-1.8-0.3-3c0-1.2-0.1-2.7-0.1-4.5
		V67.8c0-4.2-0.7-7.2-2.2-8.9c-1.5-1.7-3.8-2.6-7.1-2.6h-4.9v36.9H58.7V2.6h21.5c7.4,0,12.8,1.7,16.1,5.2c3.3,3.5,5,8.7,5,15.7v7.1
		c0,9.3-3.1,15.4-9.3,18.4c3.6,1.5,6.1,3.9,7.4,7.2c1.3,3.3,2,7.4,2,12.1v14c0,2.2,0.1,4.2,0.3,5.9c0.2,1.7,0.6,3.4,1.3,5.1H88.5z
		 M72.9,15.5v27.8h5.6c2.7,0,4.8-0.7,6.3-2.1c1.5-1.4,2.3-3.9,2.3-7.5v-8.9c0-3.3-0.6-5.7-1.7-7.1c-1.2-1.5-3-2.2-5.5-2.2H72.9z"/>
	<path class="st0" d="M109.6,24.3c0-7.3,1.9-13,5.6-16.9c3.7-3.9,9.1-5.9,16-5.9c7,0,12.3,2,16,5.9c3.7,3.9,5.6,9.6,5.6,16.9v47.1
		c0,7.3-1.9,13-5.6,16.9c-3.7,3.9-9.1,5.9-16,5.9c-7,0-12.3-2-16-5.9c-3.7-3.9-5.6-9.6-5.6-16.9V24.3z M123.8,72.3
		c0,3.3,0.7,5.6,2,6.9c1.3,1.3,3.1,2,5.4,2c2.2,0,4-0.7,5.4-2c1.3-1.3,2-3.6,2-6.9V23.4c0-3.3-0.7-5.6-2-6.9c-1.3-1.3-3.1-2-5.4-2
		c-2.2,0-4,0.7-5.4,2c-1.3,1.3-2,3.6-2,6.9V72.3z"/>
	<path class="st0" d="M207.9,93.2h-14.4l-2.5-16.4h-17.5l-2.5,16.4h-13.1l14.5-90.6h20.8L207.9,93.2z M175.4,64.4h13.7l-6.9-45.8
		L175.4,64.4z"/>
	<path class="st0" d="M214.5,2.6h22.5c7.2,0,12.5,1.9,16,5.7c3.5,3.8,5.2,9.4,5.2,16.7v45.8c0,7.3-1.7,12.9-5.2,16.7
		c-3.5,3.8-8.8,5.7-16,5.7h-22.5V2.6z M228.8,15.5v64.7h8c2.2,0,4-0.6,5.3-1.9c1.3-1.3,1.9-3.6,1.9-6.9V24.3c0-3.3-0.6-5.6-1.9-6.9
		c-1.3-1.3-3.1-1.9-5.3-1.9H228.8z"/>
</g>
<g>
	<path class="st0" d="M288.7,2.6c6.9,0,11.9,1.8,14.9,5.4c3,3.6,4.5,8.6,4.5,15v7.9c0,10.5-4.4,16.8-13.1,18.8c4.7,1,8,3.2,10,6.3
		c2,3.2,3,7.2,3,12.2v14.1c0,1.9,0.1,3.8,0.4,5.8c0.3,1.9,0.9,3.6,1.8,5.1h-6.2c-0.8-1.4-1.3-2.9-1.6-4.6c-0.3-1.7-0.4-3.8-0.4-6.3
		V68.1c0-3-0.4-5.5-1.2-7.5c-0.8-2-1.9-3.6-3.4-4.7c-1.5-1.2-3.3-2-5.4-2.5c-2.1-0.5-4.4-0.7-7-0.7h-9.4v40.5h-6V2.6H288.7z
		 M285.3,47.2c2.7,0,5-0.2,7.1-0.6c2.1-0.4,3.8-1.2,5.2-2.3c1.4-1.1,2.5-2.7,3.3-4.7c0.8-2,1.2-4.5,1.2-7.5v-8.5
		c0-4.9-1-8.7-3.1-11.5C297,9.4,293.5,8,288.5,8h-12.8v39.2H285.3z"/>
	<path class="st0" d="M325.7,2.6v90.6h-6V2.6H325.7z"/>
	<path class="st0" d="M355.2,1.8c3.5,0,6.4,0.6,8.9,1.7c2.5,1.2,4.5,2.8,6.1,4.8c1.6,2,2.8,4.4,3.5,7.2c0.7,2.8,1.1,5.8,1.1,9.1v7.5
		H369v-7.9c0-2.4-0.2-4.7-0.7-6.7c-0.5-2.1-1.3-3.9-2.4-5.4c-1.1-1.6-2.5-2.8-4.3-3.6c-1.7-0.9-3.8-1.3-6.3-1.3
		c-2.5,0-4.6,0.4-6.3,1.3c-1.7,0.9-3.2,2.1-4.3,3.6c-1.1,1.6-1.9,3.4-2.4,5.4c-0.5,2.1-0.7,4.3-0.7,6.7v47.1c0,2.4,0.2,4.7,0.7,6.7
		c0.5,2.1,1.3,3.9,2.4,5.4c1.1,1.5,2.5,2.7,4.3,3.6c1.7,0.9,3.8,1.3,6.3,1.3c2.5,0,4.6-0.4,6.3-1.3c1.7-0.9,3.1-2,4.3-3.6
		c1.1-1.5,1.9-3.3,2.4-5.4c0.5-2.1,0.7-4.3,0.7-6.7V60.7h5.7V71c0,3.3-0.4,6.3-1.1,9.1c-0.7,2.8-1.9,5.2-3.5,7.2
		c-1.6,2-3.6,3.6-6.1,4.8c-2.5,1.2-5.4,1.7-8.9,1.7c-3.5,0-6.4-0.6-8.9-1.7c-2.5-1.2-4.5-2.8-6.1-4.8c-1.6-2-2.8-4.4-3.5-7.2
		c-0.7-2.8-1.1-5.8-1.1-9.1V24.7c0-3.3,0.4-6.3,1.1-9.1c0.7-2.8,1.9-5.2,3.5-7.2c1.6-2,3.6-3.6,6.1-4.8
		C348.8,2.4,351.7,1.8,355.2,1.8z"/>
	<path class="st0" d="M390.4,50.6v42.6h-6V2.6h6v42.6h28.2V2.6h6.1v90.6h-6.1V50.6H390.4z"/>
</g>
<path class="st1" d="M43.6,94.9L3,29.9L19.9,2.8h23.7C43.6,2.8,42.6,93.8,43.6,94.9z"/>
</svg>
