<?xml version="1.0" encoding="utf-8"?>
<!-- Generator: Adobe Illustrator 28.0.0, SVG Export Plug-In . SVG Version: 6.00 Build 0)  -->
<svg version="1.1" id="Layer_1" xmlns="http://www.w3.org/2000/svg" xmlns:xlink="http://www.w3.org/1999/xlink" x="0px" y="0px"
	 viewBox="0 0 250 45" style="enable-background:new 0 0 250 45;" xml:space="preserve">
<style type="text/css">
	.st0{fill:#FFFFFF;}
</style>
<g>
	<path class="st0" d="M21.6,30.9c0,1.9-0.5,3.4-1.4,4.4c-0.9,1-2.2,1.5-3.8,1.5s-2.8-0.5-3.8-1.5c-0.9-1-1.4-2.4-1.4-4.3v-2.5H3.1
		v2.3c0,4,1.2,7.1,3.6,9.3c2.4,2.2,5.6,3.2,9.8,3.2c4.1,0,7.4-1.1,9.7-3.2c2.4-2.2,3.5-5.3,3.5-9.3V2.9h-8.1V30.9z"/>
	<path class="st0" d="M57.7,14.8c-1.2-0.8-2.6-1.4-4.1-1.8c-1.5-0.4-3.1-0.6-4.7-0.6c-2.2,0-4.2,0.3-6,1c-1.8,0.6-3.3,1.6-4.5,2.8
		c-1.2,1.2-2,2.7-2.6,4.4l7.3,1.2c0.2-0.6,0.6-1.2,1.1-1.7c0.5-0.5,1.1-0.9,1.9-1.2c0.8-0.3,1.7-0.5,2.7-0.5c1,0,1.8,0.2,2.6,0.5
		c0.7,0.3,1.2,0.8,1.6,1.3s0.5,1.3,0.5,2.2v0.1c0,0.6-0.2,1.1-0.7,1.5c-0.5,0.3-1.3,0.6-2.3,0.7c-1.1,0.2-2.5,0.3-4.2,0.5
		c-1.5,0.1-2.9,0.4-4.2,0.7c-1.3,0.4-2.5,0.9-3.6,1.5c-1.1,0.7-1.9,1.6-2.5,2.7c-0.6,1.1-0.9,2.5-0.9,4.2c0,2,0.4,3.6,1.3,5
		c0.9,1.3,2,2.3,3.6,3c1.5,0.7,3.2,1,5.1,1c1.5,0,2.8-0.2,3.9-0.6c1.1-0.4,2.1-1,2.9-1.7c0.8-0.7,1.4-1.5,1.9-2.4H54v4.1h7.6V22.6
		c0-1.8-0.4-3.3-1.1-4.6C59.9,16.7,58.9,15.6,57.7,14.8z M53.7,32c0,1.1-0.3,2-0.8,2.9c-0.5,0.9-1.3,1.5-2.2,2
		c-1,0.5-2.1,0.7-3.3,0.7c-0.9,0-1.6-0.1-2.3-0.4c-0.7-0.3-1.2-0.7-1.6-1.2c-0.4-0.5-0.6-1.2-0.6-1.9c0-0.8,0.2-1.5,0.6-2
		c0.4-0.5,1-0.9,1.7-1.3c0.7-0.3,1.6-0.6,2.6-0.7c0.4-0.1,1-0.1,1.5-0.2c0.6-0.1,1.1-0.2,1.7-0.3s1.1-0.2,1.6-0.4s0.8-0.3,1.1-0.5
		V32z"/>
	<path class="st0" d="M90.8,13.8c-1.5-0.9-3.3-1.3-5.4-1.3c-2.5,0-4.6,0.7-6.2,2c-1.3,1.1-2.3,2.7-3.1,4.6L76,12.8h-7.6v29.9h8V25.4
		c0-1.3,0.2-2.5,0.7-3.4c0.5-0.9,1.2-1.6,2.1-2.1s1.9-0.7,3-0.7c1.7,0,3,0.5,4,1.6s1.4,2.5,1.4,4.4v17.6h8v-19c0-2.3-0.4-4.3-1.3-6
		C93.6,16,92.4,14.7,90.8,13.8z"/>
	<path class="st0" d="M138.9,4.6c-2.1-1.1-4.7-1.7-7.7-1.7h-15.5v39.8h8.2v-13h7.2c3.1,0,5.7-0.6,7.8-1.7s3.8-2.7,4.9-4.7
		c1.1-2,1.7-4.3,1.7-7c0-2.6-0.6-4.9-1.7-7C142.7,7.4,141.1,5.8,138.9,4.6z M136.3,19.9c-0.5,1-1.3,1.8-2.4,2.4
		c-1.1,0.6-2.5,0.9-4.1,0.9h-5.9V9.6h5.9c1.7,0,3.1,0.3,4.1,0.8c1.1,0.6,1.9,1.3,2.4,2.4c0.5,1,0.8,2.2,0.8,3.5
		C137,17.7,136.8,18.9,136.3,19.9z"/>
	<path class="st0" d="M173.5,16.2c-1.3-1.3-2.8-2.2-4.5-2.8c-1.7-0.6-3.5-0.9-5.5-0.9c-2.9,0-5.4,0.7-7.6,2c-2.2,1.3-3.8,3.1-5,5.4
		c-1.2,2.3-1.8,5-1.8,8.1c0,3.2,0.6,5.9,1.8,8.2c1.2,2.3,2.9,4.1,5.1,5.3c2.2,1.2,4.8,1.9,7.9,1.9c2.3,0,4.4-0.3,6.2-1
		c1.8-0.7,3.3-1.6,4.5-2.9c1.2-1.2,2-2.7,2.5-4.3l-7.3-1.4c-0.3,0.8-0.7,1.4-1.2,1.9c-0.5,0.5-1.2,0.9-2,1.2
		c-0.8,0.3-1.6,0.4-2.6,0.4c-1.4,0-2.6-0.3-3.6-0.9c-1-0.6-1.9-1.5-2.4-2.6c-0.5-1.1-0.8-2.4-0.8-3.9h20.4v-2.2
		c0-2.6-0.4-4.8-1.1-6.7C175.8,19,174.8,17.5,173.5,16.2z M160.1,19.5c1-0.6,2.2-1,3.5-1c1.4,0,2.5,0.3,3.5,0.9
		c0.9,0.6,1.6,1.5,2.1,2.7c0.3,0.8,0.5,1.7,0.6,2.7h-12.7c0.1-1,0.3-1.9,0.7-2.8C158.4,21,159.2,20.1,160.1,19.5z"/>
	<path class="st0" d="M187.1,0.7c-1.2,0-2.2,0.4-3.1,1.2c-0.9,0.8-1.3,1.8-1.3,2.9c0,1.1,0.4,2.1,1.3,2.9c0.9,0.8,1.9,1.2,3.1,1.2
		c1.2,0,2.2-0.4,3.1-1.2s1.3-1.8,1.3-2.9c0-1.1-0.4-2.1-1.3-2.9S188.3,0.7,187.1,0.7z"/>
	<rect x="183.1" y="12.8" class="st0" width="8" height="29.9"/>
	<path class="st0" d="M213.2,12.4c-1.7,0-3.2,0.5-4.4,1.4c-1.3,0.9-2.2,2.3-2.8,4.2h-0.3v-5.2h-7.8v29.9h8v-17
		c0-1.2,0.3-2.3,0.8-3.3c0.5-0.9,1.3-1.7,2.3-2.2c1-0.5,2.1-0.8,3.3-0.8c0.6,0,1.2,0,1.9,0.1c0.7,0.1,1.2,0.2,1.6,0.3v-7.2
		c-0.4-0.1-0.8-0.2-1.3-0.2S213.6,12.4,213.2,12.4z"/>
	<path class="st0" d="M245.1,19.8c-1.2-2.3-2.9-4.1-5.1-5.4c-2.2-1.3-4.8-1.9-7.8-1.9c-3,0-5.6,0.6-7.8,1.9
		c-2.2,1.3-3.9,3.1-5.1,5.4c-1.2,2.3-1.8,5-1.8,8.1c0,3.1,0.6,5.8,1.8,8.1c1.2,2.3,2.9,4.1,5.1,5.4c2.2,1.3,4.8,1.9,7.8,1.9
		c3,0,5.6-0.6,7.8-1.9c2.2-1.3,3.9-3.1,5.1-5.4c1.2-2.3,1.8-5,1.8-8.1C246.9,24.8,246.3,22.1,245.1,19.8z M238,32.6
		c-0.5,1.4-1.2,2.5-2.2,3.3c-1,0.8-2.2,1.2-3.6,1.2c-1.4,0-2.6-0.4-3.6-1.2c-1-0.8-1.7-1.9-2.2-3.3s-0.7-2.9-0.7-4.7
		c0-1.8,0.2-3.3,0.7-4.7s1.2-2.4,2.2-3.2c1-0.8,2.1-1.2,3.6-1.2c1.4,0,2.6,0.4,3.6,1.2c1,0.8,1.7,1.9,2.2,3.2
		c0.5,1.4,0.7,2.9,0.7,4.7C238.7,29.6,238.5,31.2,238,32.6z"/>
</g>
</svg>
