<?xml version="1.0" encoding="utf-8"?>
<!-- Generator: Adobe Illustrator 28.0.0, SVG Export Plug-In . SVG Version: 6.00 Build 0)  -->
<svg version="1.1" id="Layer_1" xmlns="http://www.w3.org/2000/svg" xmlns:xlink="http://www.w3.org/1999/xlink" x="0px" y="0px"
	 width="538.58px" height="141.73px" viewBox="0 0 538.58 141.73" style="enable-background:new 0 0 538.58 141.73;"
	 xml:space="preserve">
<style type="text/css">
	.st0{fill:#FFFFFF;}
	.st1{fill:url(#SVGID_1_);}
	.st2{fill:none;stroke:#FFFFFF;stroke-width:0;stroke-linecap:round;stroke-linejoin:round;}
</style>
<g>
	<path class="st0" d="M71.09,28.69C47.85,28.69,29,47.53,29,70.78s18.84,42.09,42.09,42.09c23.25,0,42.09-18.84,42.09-42.09
		S94.34,28.69,71.09,28.69z M86.02,63.75l-15.6,39.78L55.62,64.12c-1.27-2.39-1.99-5.12-1.99-8.01c0-9.44,7.65-17.1,17.1-17.1
		s17.1,7.65,17.1,17.1C87.82,58.85,87.17,61.45,86.02,63.75L86.02,63.75z"/>
	
		<ellipse transform="matrix(0.7071 -0.7071 0.7071 0.7071 -18.4486 66.6535)" class="st0" cx="71.23" cy="55.6" rx="8.55" ry="8.55"/>
	<path class="st0" d="M70.72,39.01c-9.44,0-17.1,7.65-17.1,17.1c0,2.9,0.72,5.62,1.99,8.01l14.81,39.41l15.6-39.78l-0.01,0
		c1.15-2.3,1.8-4.89,1.8-7.64C87.82,46.67,80.16,39.01,70.72,39.01z M71.23,64.15c-4.72,0-8.55-3.83-8.55-8.55
		c0-4.72,3.83-8.55,8.55-8.55c4.72,0,8.55,3.83,8.55,8.55C79.78,60.32,75.96,64.15,71.23,64.15z"/>
	<linearGradient id="SVGID_1_" gradientUnits="userSpaceOnUse" x1="70.7206" y1="39.0114" x2="70.7206" y2="103.5291">
		<stop  offset="0" style="stop-color:#002955"/>
		<stop  offset="1" style="stop-color:#0098E9"/>
	</linearGradient>
	<path class="st1" d="M70.72,39.01c-9.44,0-17.1,7.65-17.1,17.1c0,2.9,0.72,5.62,1.99,8.01l14.81,39.41l15.6-39.78l-0.01,0
		c1.15-2.3,1.8-4.89,1.8-7.64C87.82,46.67,80.16,39.01,70.72,39.01z M71.23,64.15c-4.72,0-8.55-3.83-8.55-8.55
		c0-4.72,3.83-8.55,8.55-8.55c4.72,0,8.55,3.83,8.55,8.55C79.78,60.32,75.96,64.15,71.23,64.15z"/>
	<path class="st0" d="M135.48,56.89h15.68c1.57,0,2.91-0.56,4.02-1.67c1.11-1.11,1.67-2.46,1.67-4.05h-21.37
		c-3.21,0-5.94,1.14-8.21,3.43c-2.28,2.23-3.43,4.97-3.43,8.24c0,2.15,0.54,4.12,1.61,5.92c2.09,3.4,5.2,5.29,9.31,5.69h10.45
		c1.64,0,3.04,0.58,4.19,1.74c1.15,1.16,1.73,2.58,1.73,4.26c0,1.77-0.69,3.25-2.07,4.42c-1.15,0.98-2.48,1.47-3.99,1.47h-15.51
		c-1.59,0-2.94,0.56-4.05,1.67c-1.11,1.11-1.67,2.45-1.67,4.02h21.37c4.27,0,7.61-1.9,10.02-5.69c1.08-1.79,1.61-3.77,1.61-5.94
		c0-2.15-0.54-4.12-1.61-5.92v-0.03c-2.11-3.45-5.24-5.35-9.37-5.69h-10.39c-1.74,0-3.19-0.64-4.36-1.92
		c-1.04-1.11-1.56-2.44-1.56-3.99c0-1.64,0.58-3.04,1.74-4.2C132.46,57.47,133.85,56.89,135.48,56.89z"/>
	<path class="st0" d="M175.48,68.04c2.25,0,4.16-0.56,5.73-1.67c1.58-1.11,2.36-2.46,2.36-4.05h-14.89v-5.92
		c0-1.57-0.56-2.91-1.67-4.03c-1.11-1.12-2.46-1.68-4.05-1.68v11.86c-2.55,0.59-4.31,1.75-5.29,3.48c-0.36,0.62-0.54,1.29-0.54,2.01
		h5.83v10.22c0,4.49,1.84,8.16,5.52,11.01c2.4,1.83,5.15,2.75,8.27,2.75h6.82c0-0.58-0.08-1.15-0.25-1.7
		c-1.19-2.93-3.26-4.39-6.2-4.39h-0.37c-2.23,0-4.13-0.78-5.7-2.35c-1.58-1.57-2.36-3.46-2.36-5.69v-9.85H175.48z"/>
	<path class="st0" d="M206.25,67.11l-0.08-0.06c-0.85-0.6-1.77-1.11-2.75-1.53c-0.45-0.19-0.94-0.36-1.47-0.51
		c-0.42-0.13-0.94-0.25-1.59-0.34c-0.49-0.08-0.98-0.13-1.47-0.17h-0.71c-3.79,0-7.04,1.34-9.72,4.02
		c-2.69,2.68-4.03,5.93-4.03,9.74c0,3,0.87,5.69,2.6,8.07c2.85,3.79,6.57,5.69,11.15,5.69h8.07c0-0.81-0.16-1.57-0.48-2.26
		c-1.15-2.28-2.9-3.43-5.24-3.43h-2.35c-2.23,0-4.12-0.79-5.69-2.36c-1.57-1.58-2.35-3.48-2.35-5.71c0-2.23,0.78-4.13,2.35-5.7
		c1.57-1.58,3.46-2.36,5.69-2.36c2.23,0,4.13,0.79,5.7,2.36c1.58,1.58,2.36,3.48,2.36,5.7v8.07c0,0.94,0.21,1.81,0.62,2.6
		c1.17,2.06,2.86,3.09,5.07,3.09V78.26c0-3.81-1.34-7.06-4.02-9.74C207.39,68.02,206.84,67.54,206.25,67.11z"/>
	<path class="st0" d="M238.02,57.2v21.06c0,2.23-0.79,4.13-2.36,5.71s-3.48,2.36-5.7,2.36c-2.21,0-4.1-0.79-5.68-2.36
		c-1.58-1.58-2.36-3.48-2.36-5.71c0-2.23,0.79-4.13,2.36-5.7c1.58-1.58,3.47-2.36,5.68-2.36h0.76c1.57,0,2.9-0.55,4.01-1.66
		c1.1-1.1,1.67-2.45,1.68-4.03h-6.45c-1.47,0-2.88,0.22-4.22,0.65c-2.13,0.7-3.97,1.82-5.52,3.37c-2.68,2.7-4.02,5.94-4.02,9.74
		c0,3.79,1.34,7.04,4.03,9.72s5.93,4.03,9.72,4.03s7.03-1.34,9.72-4.03s4.03-5.93,4.03-9.72V51.51c-1.57,0-2.91,0.56-4.02,1.67
		C238.57,54.29,238.02,55.63,238.02,57.2z"/>
	<path class="st0" d="M266.3,68.04c2.25,0,4.16-0.56,5.73-1.67c1.58-1.11,2.36-2.46,2.36-4.05H259.5v-5.92
		c0-1.57-0.56-2.91-1.67-4.03c-1.11-1.12-2.46-1.68-4.05-1.68v11.86c-2.55,0.59-4.31,1.75-5.29,3.48c-0.36,0.62-0.54,1.29-0.54,2.01
		h5.83v10.22c0,4.49,1.84,8.16,5.52,11.01c2.4,1.83,5.15,2.75,8.27,2.75h6.82c0-0.58-0.08-1.15-0.25-1.7
		c-1.19-2.93-3.26-4.39-6.2-4.39h-0.37c-2.23,0-4.13-0.78-5.7-2.35c-1.58-1.57-2.36-3.46-2.36-5.69v-9.85H266.3z"/>
	<path class="st0" d="M292.4,64.5c-0.42,0-0.77,0.01-1.08,0.03c-0.55,0.06-1.08,0.13-1.61,0.23c-0.53,0.09-1.07,0.23-1.61,0.41
		c-0.55,0.18-1.18,0.45-1.9,0.81c-0.62,0.3-1.22,0.66-1.78,1.08l-0.06,0.06V57.2c0-1.57-0.56-2.91-1.67-4.02
		c-1.11-1.11-2.46-1.67-4.05-1.67v40.51c2.21,0,3.9-1.03,5.07-3.09c0.43-0.79,0.65-1.66,0.65-2.6v-8.07c0-2.23,0.78-4.13,2.35-5.7
		c1.57-1.58,3.46-2.36,5.69-2.36c2.23,0,4.13,0.79,5.7,2.36c1.58,1.58,2.36,3.48,2.36,5.7c0,2.23-0.79,4.13-2.36,5.71
		s-3.48,2.36-5.7,2.36h-2.35c-2.34,0-4.09,1.14-5.24,3.43c-0.3,0.7-0.45,1.45-0.45,2.26h8.04c4.6,0,8.33-1.9,11.18-5.69
		c1.72-2.38,2.58-5.07,2.58-8.07c0-3.81-1.34-7.06-4.02-9.74C299.46,65.85,296.21,64.5,292.4,64.5z"/>
	<path class="st0" d="M333.9,68.52c-2.7-2.68-5.95-4.02-9.74-4.02c-3.79,0-7.04,1.34-9.72,4.02c-2.69,2.68-4.03,5.93-4.03,9.74
		c0,3.79,1.34,7.04,4.03,9.72s5.93,4.03,9.72,4.03h11.13c0-1.51-0.51-2.81-1.53-3.91c-1.13-1.21-2.52-1.81-4.16-1.81h-5.44
		c-2.23,0-4.12-0.78-5.69-2.35c-1.57-1.57-2.35-3.46-2.35-5.69c0-2.23,0.78-4.13,2.35-5.7c1.57-1.58,3.46-2.36,5.69-2.36
		c2.23,0,4.12,0.78,5.69,2.35c0.81,0.81,1.42,1.76,1.84,2.86h-8.46c-1.57,0-2.91,0.56-4.02,1.67c-1.11,1.11-1.67,2.45-1.67,4.02
		h20.1c0.19-0.91,0.28-1.85,0.28-2.83c0-0.98-0.09-1.93-0.28-2.86C337.03,72.71,335.79,70.41,333.9,68.52z"/>
	<path class="st0" d="M347.24,67.59c-0.28-0.53-0.63-1-1.05-1.42c-1.11-1.11-2.45-1.67-4.02-1.67v27.52c2.21,0,3.9-1.03,5.07-3.09
		c0.42-0.79,0.62-1.66,0.62-2.6v-8.07c0-2.23,0.79-4.12,2.38-5.69c1.57-1.57,3.46-2.35,5.69-2.35h1.33c1.59,0,2.93-0.56,4.05-1.67
		c0.62-0.64,1.08-1.4,1.39-2.27c0.19-0.57,0.28-1.16,0.28-1.78h-7.05C352.62,64.5,349.73,65.53,347.24,67.59z"/>
	<path class="st0" d="M367.22,70.19v21.83c1.58,0,2.93-0.56,4.05-1.67c1.11-1.11,1.67-2.46,1.67-4.05V64.5
		c-1.57,0-2.91,0.56-4.03,1.67C367.78,67.29,367.22,68.63,367.22,70.19z"/>
	<path class="st0" d="M367.22,59.41v1.93c1.58,0,2.93-0.56,4.05-1.67c1.11-1.11,1.67-2.45,1.67-4.02v-1.92
		c-1.57,0-2.91,0.56-4.03,1.67C367.78,56.5,367.22,57.84,367.22,59.41z"/>
	<path class="st0" d="M390.95,70.19c2.15,0.02,4.05,0.81,5.69,2.38l0.59,0.57c1.15,1.11,2.51,1.67,4.08,1.67
		c0.96,0,1.88-0.25,2.75-0.74c-0.64-2.06-1.76-3.91-3.37-5.55c-2.96-2.68-6.21-4.02-9.74-4.02c-3.66,0-6.91,1.34-9.74,4.02
		c-2.68,2.96-4.02,6.21-4.02,9.74c0,3.53,1.34,6.78,4.02,9.74c2.83,2.68,6.08,4.02,9.74,4.02c3.53,0,6.78-1.34,9.74-4.02
		c1.6-1.64,2.73-3.49,3.37-5.55c-0.89-0.49-1.82-0.74-2.8-0.74c-0.25,0-0.74,0.05-1.47,0.14c-0.74,0.09-1.59,0.6-2.55,1.53
		l-0.59,0.57c-1.64,1.59-3.54,2.38-5.69,2.38c-2.06,0-3.95-0.79-5.69-2.38c-1.57-1.74-2.35-3.63-2.35-5.69
		c0-2.06,0.78-3.95,2.35-5.69C386.99,70.99,388.89,70.19,390.95,70.19z"/>
	<path class="st2" d="M424.89,62.3c0.21,0.26,0.4,0.54,0.57,0.82"/>
	<path class="st0" d="M430.04,67.02c-2.43-1.68-5.1-2.52-7.98-2.52c-2.19,0-4.26,0.49-6.2,1.47c-0.64,0.32-1.25,0.7-1.84,1.13V57.2
		c0-1.57-0.56-2.91-1.67-4.02c-1.11-1.11-2.46-1.67-4.05-1.67v40.51c2.21,0,3.9-1.03,5.07-3.09c0.43-0.81,0.65-1.69,0.65-2.63v-8.04
		c0-2.23,0.78-4.13,2.35-5.7c1.57-1.58,3.46-2.36,5.69-2.36c2.23,0,4.12,0.79,5.69,2.38c1.38,1.38,2.16,3.08,2.35,5.12
		c0.02,0.19,0.03,3.06,0.03,8.61c0,0.94,0.21,1.82,0.62,2.63c1.17,2.06,2.86,3.09,5.07,3.09V78.26c0-3.81-1.34-7.06-4.02-9.74
		C431.17,67.9,430.59,67.4,430.04,67.02z"/>
	<path class="st0" d="M453.88,68.04c2.25,0,4.16-0.56,5.73-1.67c1.58-1.11,2.36-2.46,2.36-4.05h-14.89v-5.92
		c0-1.57-0.56-2.91-1.67-4.03s-2.46-1.68-4.05-1.68v11.86c-2.55,0.59-4.31,1.75-5.29,3.48c-0.36,0.62-0.54,1.29-0.54,2.01h5.83
		v10.22c0,4.49,1.84,8.16,5.52,11.01c2.4,1.83,5.15,2.75,8.27,2.75h6.82c0-0.58-0.08-1.15-0.25-1.7c-1.19-2.93-3.26-4.39-6.2-4.39
		h-0.37c-2.23,0-4.13-0.78-5.71-2.35c-1.58-1.57-2.36-3.46-2.36-5.69v-9.85H453.88z"/>
	<path class="st0" d="M486.32,68.52c-2.7-2.68-5.95-4.02-9.74-4.02c-3.79,0-7.04,1.34-9.72,4.02c-2.69,2.68-4.03,5.93-4.03,9.74
		c0,3.79,1.34,7.04,4.03,9.72s5.93,4.03,9.72,4.03h11.13c0-1.51-0.51-2.81-1.53-3.91c-1.13-1.21-2.52-1.81-4.16-1.81h-5.44
		c-2.23,0-4.12-0.78-5.69-2.35c-1.57-1.57-2.35-3.46-2.35-5.69c0-2.23,0.78-4.13,2.35-5.7c1.57-1.58,3.46-2.36,5.69-2.36
		c2.23,0,4.12,0.78,5.69,2.35c0.81,0.81,1.42,1.76,1.84,2.86h-8.46c-1.57,0-2.91,0.56-4.02,1.67c-1.11,1.11-1.67,2.45-1.67,4.02
		h20.1c0.19-0.91,0.28-1.85,0.28-2.83c0-0.98-0.09-1.93-0.28-2.86C489.46,72.71,488.21,70.41,486.32,68.52z"/>
	<path class="st0" d="M508.35,64.5c-3.3,0-6.2,1.03-8.69,3.09c-0.28-0.53-0.63-1-1.05-1.42c-1.11-1.11-2.45-1.67-4.02-1.67v27.52
		c2.21,0,3.9-1.03,5.07-3.09c0.42-0.79,0.62-1.66,0.62-2.6v-8.07c0-2.23,0.79-4.12,2.38-5.69c1.57-1.57,3.46-2.35,5.69-2.35h1.33
		c1.59,0,2.93-0.56,4.05-1.67c0.62-0.64,1.08-1.4,1.39-2.27c0.19-0.57,0.28-1.16,0.28-1.78H508.35z"/>
</g>
</svg>
