<?xml version="1.0" encoding="utf-8"?>
<!-- Generator: Adobe Illustrator 28.0.0, SVG Export Plug-In . SVG Version: 6.00 Build 0)  -->
<svg version="1.1" id="Layer_1" xmlns="http://www.w3.org/2000/svg" xmlns:xlink="http://www.w3.org/1999/xlink" x="0px" y="0px"
	 viewBox="0 0 1000 250" style="enable-background:new 0 0 1000 250;" xml:space="preserve">
<style type="text/css">
	.st0{fill:#FFFFFF;}
	.st1{fill:url(#SVGID_1_);}
</style>
<path class="st0" d="M105.1,8C52.5,8,9.8,50.7,9.8,103.5s42.7,95.4,95.4,95.4s95.4-42.7,95.4-95.4S157.9,8,105.1,8z M139,87.6
	l-35.4,90.2L70.1,88.4c-2.9-5.4-4.5-11.6-4.5-18.1c0-21.4,17.3-38.7,38.7-38.7s38.7,17.3,38.7,38.7C143.1,76.4,141.6,82.3,139,87.6
	L139,87.6z"/>
<linearGradient id="SVGID_1_" gradientUnits="userSpaceOnUse" x1="104.3812" y1="-327.5066" x2="104.3812" y2="-473.6568" gradientTransform="matrix(1 0 0 -1 0 -296)">
	<stop  offset="0" style="stop-color:#002955"/>
	<stop  offset="1" style="stop-color:#0098E9"/>
</linearGradient>
<path class="st1" d="M104.3,31.5c-21.4,0-38.7,17.3-38.7,38.7c0,6.6,1.7,12.7,4.5,18.1l33.6,89.3l35.4-90.2l0,0
	c2.6-5.2,4.1-11.1,4.1-17.3C143.1,48.8,125.7,31.5,104.3,31.5z M105.5,88.4c-10.7,0-19.4-8.7-19.4-19.4s8.7-19.4,19.4-19.4
	s19.4,8.7,19.4,19.4S116.2,88.4,105.5,88.4z"/>
<circle class="st0" cx="105.5" cy="69.1" r="19.4"/>
<g>
	<path class="st0" d="M395,84.6c5.9-7.3,9.3-16,10-25.9l0.1-3c0-12.8-4.5-23.8-13.6-32.9c-9.1-9.1-20.1-13.6-33-13.6h-98.2V189
		c6.9,0,12.8-2.4,17.6-7.3c4.8-4.8,7.4-10.8,7.6-18V34.3h72.9c5.9,0,11,2.1,15.1,6.3c4.2,4.2,6.3,9.2,6.3,15.1
		c0,5.9-2.1,10.9-6.3,15.1c-4.2,4.1-9.2,6.2-15.1,6.2h-31c-6.9,0-12.8,2.5-17.8,7.4c-4.9,5-7.4,10.9-7.4,17.8h64.5
		c8.5,0,15.8,3,21.8,9c6,6,9,13.3,9,21.8c0,8.5-3,15.8-9,21.8c-6,6-13.3,9-21.8,9h-45c-6.9,0-12.8,2.5-17.8,7.4
		c-4.9,4.9-7.4,10.9-7.4,17.9h70.2c15.5,0,28.7-5.5,39.6-16.4c10.9-10.9,16.4-24.1,16.4-39.6c0-15.4-5.5-28.6-16.4-39.5
		C403,90,399.2,87,395,84.6z"/>
	<path class="st0" d="M538,92.6v34.8c0,9.6-3.3,17.9-9.8,24.9c-6.5,7-14.7,10.8-24.5,11.5h-0.4c-10.3,0-18.9-3.4-26-10.3
		c-7-6.8-10.6-15.3-10.6-25.4V92.6c0-7-2.5-13-7.4-17.9c-4.9-4.9-10.9-7.4-17.9-7.4v60.8c0,16.8,5.9,31.2,17.8,43.1
		c11.9,11.9,26.2,17.8,43.1,17.8c14.5,0,27.3-4.6,38.4-13.8c1.2,2.3,2.7,4.5,4.5,6.4c4.9,4.9,10.9,7.4,17.9,7.4V67.3
		c-7,0-13,2.5-17.9,7.4C540.5,79.6,538,85.6,538,92.6z"/>
	<path class="st0" d="M739.3,67.4c-19.6,0-35.6,7.9-48.2,23.6c-12.5-15.8-28.6-23.6-48.2-23.6c-14.6,0-27.4,4.5-38.4,13.6
		c-1.3-2.3-2.8-4.4-4.6-6.3c-4.9-4.9-10.9-7.4-17.9-7.4V189c7,0,13-2.5,17.9-7.4c4.9-4.9,7.4-10.8,7.4-17.8v-34.8
		c0-9.7,3.3-18,9.8-25c6.5-7,14.7-10.8,24.5-11.4h0.8c9.8,0,18,3.2,24.8,9.5c6.8,6.3,10.6,14.5,11.3,24.4v37.3
		c0,6.9,2.4,12.8,7.3,17.6c4.8,4.8,10.8,7.3,17.9,7.5c0-40.5,0-61.1,0.1-61.8c0.7-9.5,4.1-17.5,10.4-24c6.3-6.5,14.2-10,23.7-10.6
		h0.4c10.3,0,18.9,3.4,26,10.2c7,6.8,10.6,15.2,10.6,25.3v35.6c0,6.9,2.5,12.8,7.4,17.8c4.9,4.9,10.9,7.4,17.9,7.4v-60.8
		c0-16.8-5.9-31.1-17.8-43C770.3,73.4,756,67.4,739.3,67.4z"/>
	<path class="st0" d="M879.6,67.4c-16.8,0-31.1,5.9-43,17.8c-11.9,11.8-17.8,26.2-17.8,43v113.2c7,0,13-2.5,17.9-7.4
		c4.9-4.9,7.4-10.8,7.4-17.8v-88c0-9.8,3.5-18.2,10.4-25.2c6.9-7,15.3-10.4,25.1-10.4s18.2,3.5,25.1,10.4c6.9,7,10.4,15.4,10.4,25.2
		c0,9.8-3.5,18.2-10.4,25.1c-6.9,6.9-15.3,10.4-25.1,10.4h-3.3c-7,0-12.9,2.5-17.8,7.4c-4.9,4.9-7.4,10.9-7.4,17.9h28.5
		c6.5,0,12.8-1,18.8-2.9c9.3-3.2,17.4-8.1,24.3-14.9c11.8-11.9,17.8-26.3,17.8-43c0-16.8-5.9-31.2-17.8-43
		C910.8,73.4,896.4,67.4,879.6,67.4z"/>
	<path class="st0" d="M966.6,27.2c-5,4.9-7.4,10.8-7.4,17.8v8.5c7,0,13-2.5,17.9-7.4c4.9-4.9,7.4-10.8,7.4-17.8v-8.5
		C977.5,19.8,971.5,22.3,966.6,27.2z"/>
	<path class="st0" d="M959.1,92.6V189c7,0,13-2.5,17.9-7.4c4.9-4.9,7.4-10.9,7.4-17.9V67.4c-6.9,0-12.9,2.5-17.8,7.4
		C961.6,79.7,959.1,85.7,959.1,92.6z"/>
</g>
</svg>
