<?xml version="1.0" encoding="utf-8"?>
<!-- Generator: Adobe Illustrator 28.0.0, SVG Export Plug-In . SVG Version: 6.00 Build 0)  -->
<svg version="1.1" id="Layer_1" xmlns="http://www.w3.org/2000/svg" xmlns:xlink="http://www.w3.org/1999/xlink" x="0px" y="0px"
	 viewBox="0 0 800 800" style="enable-background:new 0 0 800 800;" xml:space="preserve">
<style type="text/css">
	.st0{fill:#FFFFFF;}
	.st1{fill:url(#SVGID_1_);}
</style>
<g id="Layer_1_00000039113903679772493040000011230072804308244140_">
	<path class="st0" d="M393.8,150c-93.6,0-169.4,75.9-169.4,169.6S300.2,489.2,394,489.2s169.6-75.9,169.6-169.6S487.5,150,393.8,150
		z M454,291.3l-62.9,160.2l-59.5-158.9c-5.1-9.6-8-20.7-8-32.2c0-38,30.8-68.8,68.8-68.8s68.8,30.8,68.8,68.8
		C461.2,271.5,458.7,282,454,291.3L454,291.3z"/>
	
		<linearGradient id="SVGID_1_" gradientUnits="userSpaceOnUse" x1="392.5111" y1="187.6916" x2="392.5111" y2="447.4099" gradientTransform="matrix(1 0 0 1 0 4)">
		<stop  offset="0" style="stop-color:#002955"/>
		<stop  offset="1" style="stop-color:#0098E9"/>
	</linearGradient>
	<path class="st1" d="M392.4,191.7c-38,0-68.8,30.8-68.8,68.8c0,11.7,3,22.6,8,32.2l59.6,158.7l62.9-160.2l0,0
		c4.6-9.3,7.2-19.7,7.2-30.8C461.2,222.5,430.4,191.7,392.4,191.7z M394.4,292.8c-18.9,0-34.5-15.4-34.5-34.5s15.4-34.5,34.5-34.5
		c19.1,0,34.5,15.4,34.5,34.5S413.5,292.8,394.4,292.8z"/>
	<circle class="st0" cx="394.6" cy="258.5" r="34.5"/>
	<g>
		<path class="st0" d="M218.8,557.7c4.6-5.8,7.3-12.5,7.8-20.3l0.1-2.4c0-10.1-3.6-18.7-10.7-25.8c-7.1-7.1-15.8-10.7-25.9-10.7
			h-76.9v141c5.4,0,10-1.9,13.8-5.7c3.8-3.8,5.8-8.5,6-14.1V518.2h57.2c4.6,0,8.6,1.7,11.8,4.9c3.3,3.3,4.9,7.2,4.9,11.8
			s-1.7,8.6-4.9,11.8c-3.3,3.3-7.2,4.9-11.8,4.9h-24.3c-5.4,0-10.1,2-13.9,5.8c-3.9,3.9-5.8,8.6-5.8,14h50.7
			c6.7,0,12.4,2.4,17.1,7.1c4.7,4.7,7.1,10.4,7.1,17.1s-2.4,12.4-7.1,17.1c-4.7,4.7-10.4,7.1-17.1,7.1h-35.4
			c-5.4,0-10.1,1.9-13.9,5.8c-3.9,3.9-5.8,8.5-5.8,14h55.1c12.2,0,22.6-4.3,31.1-12.8c8.6-8.6,12.8-18.9,12.8-31.1
			c0-12.1-4.3-22.4-12.8-31C225.2,561.9,222.2,559.5,218.8,557.7z"/>
		<path class="st0" d="M331.1,564v27.3c0,7.5-2.6,14-7.7,19.5c-5.1,5.5-11.5,8.5-19.2,9h-0.3c-8,0-14.8-2.7-20.4-8
			c-5.5-5.4-8.3-12-8.3-19.9V564c0-5.5-1.9-10.2-5.8-14c-3.9-3.9-8.5-5.8-14-5.8v47.7c0,13.2,4.6,24.5,14,33.8
			c9.3,9.3,20.6,14,33.8,14c11.4,0,21.4-3.6,30.1-10.8c0.9,1.8,2.1,3.5,3.5,5c3.9,3.9,8.5,5.8,14,5.8v-95.5c-5.5,0-10.2,1.9-14,5.8
			C333,553.8,331.1,558.5,331.1,564z"/>
		<path class="st0" d="M488.9,544.2c-15.3,0-27.9,6.2-37.7,18.5c-9.8-12.4-22.4-18.5-37.7-18.5c-11.5,0-21.5,3.6-30.1,10.7
			c-1-1.8-2.2-3.5-3.6-4.9c-3.9-3.9-8.5-5.8-14-5.8v95.4c5.5,0,10.2-1.9,14-5.8c3.9-3.9,5.8-8.5,5.8-13.9v-27.3
			c0-7.6,2.6-14.1,7.7-19.6c5.1-5.5,11.5-8.5,19.2-9h0.6c7.7,0,14.1,2.5,19.4,7.4c5.3,4.9,8.3,11.3,8.9,19.1v29.2
			c0,5.4,1.9,10,5.7,13.8s8.4,5.8,14,5.9c0-31.8,0-47.9,0.1-48.5c0.5-7.4,3.3-13.7,8.2-18.8c4.9-5.1,11.2-7.8,18.6-8.3h0.3
			c8,0,14.8,2.7,20.4,8c5.5,5.3,8.3,11.9,8.3,19.9V620c0,5.4,1.9,10.1,5.8,13.9c3.9,3.9,8.5,5.8,14,5.8V592c0-13.1-4.6-24.4-14-33.7
			C513.3,548.9,502,544.2,488.9,544.2z"/>
		<path class="st0" d="M599,544.2c-13.1,0-24.4,4.6-33.7,13.9s-14,20.5-14,33.7v88.8c5.5,0,10.2-1.9,14-5.8s5.8-8.5,5.8-13.9v-69
			c0-7.7,2.7-14.3,8.1-19.7c5.4-5.5,12-8.2,19.7-8.2c7.7,0,14.3,2.7,19.7,8.2c5.4,5.5,8.1,12.1,8.1,19.7c0,7.7-2.7,14.3-8.1,19.7
			c-5.4,5.4-12,8.1-19.7,8.1h-2.6c-5.5,0-10.2,1.9-14,5.8s-5.8,8.5-5.8,14H599c5.1,0,10-0.8,14.7-2.3c7.3-2.5,13.7-6.4,19.1-11.7
			c9.3-9.3,13.9-20.6,13.9-33.7c0-13.2-4.6-24.5-13.9-33.7C623.4,548.8,612.1,544.2,599,544.2z"/>
		<path class="st0" d="M667.2,512.6c-3.9,3.9-5.8,8.5-5.8,13.9v6.7c5.5,0,10.2-1.9,14-5.8c3.9-3.9,5.8-8.5,5.8-13.9v-6.7
			C675.8,506.8,671.1,508.8,667.2,512.6z"/>
		<path class="st0" d="M661.3,564v75.6c5.5,0,10.2-1.9,14-5.8s5.8-8.5,5.8-14v-75.6c-5.4,0-10.1,1.9-14,5.8
			C663.3,553.9,661.3,558.5,661.3,564z"/>
	</g>
</g>
<g id="Layer_2_00000152250985406644104270000011174415354818216882_">
</g>
</svg>
