<?xml version="1.0" encoding="utf-8"?>
<!-- Generator: Adobe Illustrator 28.0.0, SVG Export Plug-In . SVG Version: 6.00 Build 0)  -->
<svg version="1.1" id="Layer_1" xmlns="http://www.w3.org/2000/svg" xmlns:xlink="http://www.w3.org/1999/xlink" x="0px" y="0px"
	 viewBox="0 0 1000 250" style="enable-background:new 0 0 1000 250;" xml:space="preserve">
<style type="text/css">
	.st0{fill:#FFFFFF;}
	.st1{fill:url(#SVGID_1_);}
</style>
<path class="st0" d="M162.4,43c-50,0-90.6,40.6-90.6,90.7s40.6,90.6,90.6,90.6s90.6-40.6,90.6-90.6S212.5,43,162.4,43z M194.6,118.6
	l-33.6,85.7l-31.8-84.9c-2.8-5.1-4.3-11-4.3-17.2c0-20.3,16.4-36.8,36.8-36.8s36.8,16.4,36.8,36.8C198.5,108,197,113.6,194.6,118.6
	L194.6,118.6z M342.7,90.9h26.1c4.8,0,8.8-1.7,12.2-5c3.4-3.4,5-7.4,5-12.2h-44.9c-16.5,0-30.8,5.7-42.7,17.2
	c-12.5,12.1-18.7,26.8-18.7,44.1c0,16.9,6,31.4,17.9,43.3c11.8,12,26.3,18,43.4,18H386c0-4.7-1.7-8.8-5-12.1c-3.4-3.4-7.4-5-12.2-5
	h-26.1c-12.2,0-22.6-4.3-31.2-13c-8.6-8.6-13-19.1-13-31.2s4.3-22.6,13-31.2C320.1,95.2,330.5,90.9,342.7,90.9z M398.8,98v5.8
	c4.8,0,8.8-1.7,12.2-5c3.4-3.4,5-7.4,5-12.1v-5.8c-4.7,0-8.8,1.7-12.2,5C400.5,89.3,398.8,93.3,398.8,98z M398.8,130.5v65.8
	c4.8,0,8.8-1.7,12.2-5c3.4-3.4,5-7.4,5-12.2v-65.7c-4.7,0-8.8,1.7-12.2,5C400.5,121.8,398.8,125.8,398.8,130.5z M484.1,124.1
	c6.8,0,12.5-1.7,17.3-5c4.7-3.4,7.1-7.4,7.1-12.2h-44.9V89c0-4.7-1.7-8.8-5-12.2c-3.4-3.4-7.4-5.1-12.2-5.1v35.7
	c-7.7,1.8-13,5.3-16,10.5c-1.1,1.9-1.6,3.9-1.6,6.1h17.6v30.8c0,13.5,5.5,24.6,16.6,33.2c7.2,5.5,15.5,8.3,24.9,8.3h20.6
	c0-1.8-0.3-3.5-0.8-5.1c-3.6-8.8-9.8-13.2-18.7-13.2h-1.1c-6.7,0-12.4-2.4-17.2-7.1c-4.7-4.7-7.1-10.4-7.1-17.1v-29.7H484.1z
	 M586.4,122.8c-1.3,2.4-1.9,5-1.9,7.8c0,17.1-0.1,26.1-0.2,27c-0.3,3.5-1.5,6.8-3.3,9.9c-1.7,2.9-4,5.3-6.9,7.3
	c-0.9,0.7-2.3,1.5-4.1,2.3c-3,1.4-6.2,2-9.8,2c-5.1,0-9.6-1.4-13.6-4.2c-3.5-2.3-6.1-5.3-8-9c-1.5-3-2.4-6.1-2.6-9.4v-26
	c0-2.8-0.7-5.5-2-7.8c-3.5-6.3-8.6-9.4-15.3-9.4c0,28.4,0,43,0.1,43.8c0.2,5.3,1.5,10.5,3.8,15.4c2,4.4,5.1,8.6,9.3,12.6
	c1.8,1.7,4.3,3.6,7.7,5.7c3.1,1.6,5.6,2.7,7.5,3.3c4,1.4,8.4,2.1,13.1,2.1c3.1,0,6.3-0.4,9.5-1.1c5.5-1.3,10.4-3.6,14.8-6.7v1.8
	c0,6.7-2.4,12.4-7.1,17.1c-4.7,4.7-10.5,7.1-17.2,7.1H536c-2.8,0-5.5,0.7-7.9,2c-6.2,3.5-9.3,8.6-9.3,15.3h41.5
	c11.5,0,21.3-4.1,29.3-12.2c8.1-8.1,12.1-17.9,12.1-29.3v-76.9C595,113.4,589.9,116.5,586.4,122.8z M678.1,179.1h-46.4V90.9
	c0-4.8-1.7-8.8-5-12.2c-3.4-3.4-7.4-5-12.2-5v122.7h80.9c0-4.8-1.7-8.8-5-12.2C686.9,180.8,682.9,179.1,678.1,179.1z M708.1,98v5.8
	c4.8,0,8.8-1.7,12.2-5c3.4-3.4,5-7.4,5-12.1v-5.8c-4.7,0-8.8,1.7-12.2,5C709.8,89.3,708.1,93.3,708.1,98z M708.1,130.5v65.8
	c4.8,0,8.8-1.7,12.2-5c3.4-3.4,5-7.4,5-12.2v-65.7c-4.7,0-8.8,1.7-12.2,5C709.8,121.8,708.1,125.8,708.1,130.5z M779.6,113.4
	c-10,0-18.7,3.1-26.2,9.3c-0.9-1.6-1.9-3-3.2-4.3c-3.4-3.4-7.4-5-12.1-5v82.9c4.7,0,8.8-1.7,12.1-5c3.4-3.4,5-7.4,5-12.1v-23.7
	c0-6.6,2.2-12.3,6.7-17.1s10-7.4,16.8-7.8h0.3c6.9,0,12.8,2.3,17.7,7c4.8,4.7,7.3,10.4,7.3,17.2v24.3c0,4.7,1.7,8.8,5,12.1
	c3.4,3.4,7.4,5,12.1,5v-41.5c0-11.4-4.1-21.2-12.2-29.3C800.8,117.4,791,113.4,779.6,113.4z M880.5,155.4l18-17.2
	c3.5-3.4,5.2-6.3,5.3-8.7c0.1-2.4,0.1-3.6,0.1-3.8c0-4.4-1.6-8.3-4.8-11.9l-30.6,28.9l-12.5,11.9l34.6,36.3c3.5,3.5,6.4,5.2,8.7,5.3
	c2.4,0.1,3.6,0.1,3.7,0.1c4.4,0,8.4-1.6,11.9-4.8L880.5,155.4z M833.9,74.2v122.1c4.8,0,8.8-1.7,12.2-5c3.4-3.4,5-7.4,5-12.1V91.4
	c0-4.7-1.7-8.8-5-12.1C842.7,75.9,838.6,74.2,833.9,74.2z"/>
<linearGradient id="SVGID_1_" gradientUnits="userSpaceOnUse" x1="161.6971" y1="611.328" x2="161.6971" y2="750.1491" gradientTransform="matrix(1 0 0 1 0 -546)">
	<stop  offset="0" style="stop-color:#002955"/>
	<stop  offset="1" style="stop-color:#0098E9"/>
</linearGradient>
<path class="st1" d="M161.6,65.3c-20.3,0-36.8,16.4-36.8,36.8c0,6.3,1.6,12.1,4.3,17.2l31.9,84.9l33.6-85.7l0,0
	c2.5-4.9,3.9-10.5,3.9-16.4C198.5,81.8,181.9,65.3,161.6,65.3z M162.7,119.4c-10.2,0-18.4-8.3-18.4-18.4s8.3-18.4,18.4-18.4
	s18.4,8.3,18.4,18.4S172.9,119.4,162.7,119.4z"/>
<circle class="st0" cx="162.7" cy="101.1" r="18.4"/>
</svg>
