<?xml version="1.0" encoding="UTF-8" standalone="no"?>
<!-- Created with Inkscape (http://www.inkscape.org/) -->

<svg
   width="35.908943mm"
   height="44.145466mm"
   viewBox="0 0 35.908943 44.145466"
   version="1.1"
   id="svg1"
   xmlns="http://www.w3.org/2000/svg"
   xmlns:svg="http://www.w3.org/2000/svg">
  <defs
     id="defs1" />
  <path
     style="font-weight:900;font-size:60.6778px;font-family:'Inter Display';-inkscape-font-specification:'Inter Display Heavy';baseline-shift:baseline;fill:#ffffff;stroke-width:0.264583"
     d="M 5.7300517e-6,44.145474 V 3.9153308e-6 H 18.754422 c 3.51584,0 6.55763,0.6320600046692 9.12537,1.8961799846692 2.56775,1.24437 4.54294,3.02204 5.92557,5.33301 1.40238,2.29122 2.10358,5.0169801 2.10358,8.1772901 0,3.14055 -0.7012,5.86631 -2.10358,8.17728 -1.38263,2.31097 -3.35782,4.09851 -5.92557,5.36263 -2.56774,1.24437 -5.60953,1.86656 -9.12537,1.86656 h -6.42924 v 13.33252 z M 12.325182,20.680234 h 5.51078 c 1.85668,0 3.32819,-0.47405 4.41454,-1.42214 1.08636,-0.94809 1.62954,-2.23196 1.62954,-3.85161 0,-1.61966 -0.54318,-2.90354 -1.62954,-3.85163 -1.08635,-0.94809 -2.55786,-1.42213 -4.41454,-1.42213 h -5.51078 z"
     id="text1-7"
     aria-label="P" />
</svg>
